<?xml version="1.0" encoding="UTF-8"?>
<svg id="Layer_2" xmlns="http://www.w3.org/2000/svg" version="1.1" viewBox="0 0 2000 2000">
  <!-- Generator: Adobe Illustrator 29.5.1, SVG Export Plug-In . SVG Version: 2.1.0 Build 141)  -->
  <defs>
    <style>
      .st0 {
        fill: #c5cbe4;
        stroke: #000;
        stroke-miterlimit: 10;
        stroke-width: 4px;
      }

      .st1 {
        fill: #7388e7;
      }

      .st2 {
        fill: #fff;
      }

      .st3 {
        fill: #4763e2;
      }
    </style>
  </defs>
  <path class="st3" d="M769.9,1328.3c-266.8-181.1-413.7-587.8-81.4-804.9,67.1-43.8,173.8-61.8,253.7-49.5,93.2,14.4,149.9,78.4,225,127.2,109.7,71.2,240.7,14.7,351.2,89.1,92.6,62.4,170.6,163.5,180.3,272,16,180.7-61.2,354-234.3,431.3-77.7,34.7-202.4,39.2-282.8,46.6-127.3,11.7-307.9-41.5-411.6-111.9h0Z"/>
  <circle cx="801.1" cy="804.7" r="103.6"/>
  <path d="M1018.2,1437.4l-362.5-12.8c-64,20.9-87,93.4-95.5,163.5h484.6l-26.6-150.6h0Z"/>
  <path d="M1044.8,1591.5h-484.6c-1,0-1.9-.4-2.6-1.2-.6-.7-1-1.7-.8-2.7,11.5-94.1,43.5-148.5,97.8-166.3.4,0,.8-.2,1.2-.2l362.5,12.8c1.6,0,3,1.2,3.2,2.8l26.6,150.6c.2,1,0,2-.7,2.8-.6.8-1.6,1.2-2.6,1.2v.2ZM564.1,1584.6h476.6l-25.4-143.9-359.1-12.7c-50.5,16.8-80.7,68.1-92.1,156.6h0Z"/>
  <path class="st2" d="M1414.5,1265.2c4.2-181.7-.6-410.6.6-372.1l-203.2-5s8.4,192.3-31.9,211.1c-34,15.9-74.4-34.1-106.6-66.9-56.5-57.6-95.6-81.6-220.5-77.9,0,0-70.7-13-213.4,13.9-208.4,39.2-254,230.4-313.3,355.4-86.5,182.5,75.9,310.3,255.3,160.4v22.1l449.7-1.9-31-192.2c143.3,214.6,407.6,238.5,414.2-46.9h.1Z"/>
  <path d="M427.8,1553.6c-30.6,0-58.7-8.9-80.6-25.9-53.9-41.7-63.3-122.3-23.9-205.4,9.1-19.3,17.9-40,27.1-61.8,24.7-58.5,52.7-124.8,96.2-179.5,50.1-63.1,113.1-101,192.3-115.9,136.4-25.7,208.4-14.9,214.2-13.9,127.4-3.7,167.4,22.5,222.7,78.9,4.1,4.1,8.2,8.5,12.5,13.1,29.4,31,62.7,66,90.2,53.2,31.3-14.7,32.2-155,29.9-207.9,0-.9.3-1.9,1-2.5.7-.7,1.6-1,2.5-1l199.6,4.9c.2-3.2.9-4.1,3.3-4.2,2.4,0,3.2,1.1,3.4,3.7,0,1.3.2,2.5.2,3.9s0,.8-.2,1.1c0,3.7,0,9.1.2,15.5.6,54.3,2.6,219.5-.6,355.6-2.6,112.5-45.2,186.4-120,208.2-45.4,13.2-100,5.1-153.8-22.9-51.8-26.9-99.3-69.7-138.1-124.1l28.6,177.3c.2,1,0,2-.8,2.8-.6.8-1.6,1.2-2.6,1.2l-449.7,1.9c-.9,0-1.8-.4-2.4-1-.6-.6-1-1.5-1-2.4v-14.9c-42.2,34-86.2,54.9-127.6,60.6-7.7,1.1-15.3,1.6-22.7,1.6v-.2ZM801.6,954.8c-35.4,0-89.3,3.3-161.4,16.9-174.3,32.8-232.4,170.2-283.6,291.4-9.3,22-18,42.7-27.2,62.1-37.9,80-29.3,157.4,21.9,197.1,56.6,43.8,146.1,27.8,228-40.7,1-.9,2.4-1,3.6-.5,1.2.6,2,1.8,2,3.1v18.7l442.3-1.9-30.4-188.3c-.3-1.6.6-3.1,2.1-3.7s3.2,0,4.1,1.3c39.7,59.4,89.6,105.9,144.2,134.3,52.2,27.1,105,35.1,148.7,22.4,71.7-20.8,112.5-92.5,115-201.8h3.4-3.4c3.1-136,1.2-301.1.6-355.3,0-5.4,0-9.9-.2-13.3l-196.1-4.8c1.2,31.9,5.3,192.3-34,210.7-32,14.9-67.1-22-98-54.7-4.3-4.5-8.4-8.9-12.4-13-55.1-56.3-92.4-80.6-217.9-76.9-1.1,0-18-3.1-51.4-3.1h.1Z"/>
  <path d="M816.1,1052.7c-92.7,0-178-81-178.9-81.9-1.4-1.3-1.4-3.5,0-4.8,1.3-1.4,3.5-1.4,4.8,0,.9.9,94.9,90.1,190.9,79,95-10.9,110.4-83.3,111-86.4.4-1.8,2.2-3,4-2.7,1.8.4,3.1,2.2,2.7,4-.2.8-16.9,80.3-116.9,91.9-5.8.7-11.7,1-17.5,1h0Z"/>
  <path d="M993.8,1275.2c-1.1,0-2.1-.5-2.8-1.5-1.1-1.5-.7-3.7.8-4.8,22.7-15.9,36.3-41.9,36.3-69.5s-20.6-65.2-52.4-78.4c-1.7-.7-2.6-2.7-1.9-4.5.7-1.7,2.7-2.6,4.5-1.9,34.4,14.2,56.7,47.5,56.7,84.7s-14.6,58-39.2,75.1c-.6.4-1.3.6-2,.6v.2Z"/>
  <path d="M977,1121.4c-1.9,0-3.4-1.5-3.4-3.4v-40.7c0-1.9,1.5-3.4,3.4-3.4s3.4,1.5,3.4,3.4v40.7c0,1.9-1.5,3.4-3.4,3.4Z"/>
  <path d="M1008.1,1364.1c-1.6,0-3.1-1.2-3.4-2.9l-14.3-88.9c-.3-1.9,1-3.6,2.8-3.9,1.9-.3,3.6,1,3.9,2.8l14.3,88.9c.3,1.9-1,3.6-2.8,3.9h-.5Z"/>
  <path d="M825.5,666.1c0,48.6-39.4,88-88,88s-88-39.4-88-88,39.4-88,88-88,88,39.4,88,88Z"/>
  <path d="M743.8,745.7c-50.4,0-91.5-41-91.5-91.5s41-91.5,91.5-91.5,91.5,41,91.5,91.5-41,91.5-91.5,91.5ZM743.8,569.6c-46.7,0-84.6,38-84.6,84.6s38,84.6,84.6,84.6,84.6-38,84.6-84.6-38-84.6-84.6-84.6Z"/>
  <path class="st2" d="M734.8,977l12.7-83.8c45.8-15,21.3-70.3,21.3-70.3,48.9.4,65.9-48.2,73.2-74.9,2-7.4,10.2-11.2,17.1-7.9,14.4,6.8,35.3,18.5,37.7,34.6,11.4,75.5,34.4,149.8-46.7,156.4v45.9h-115.4.1Z"/>
  <path d="M737.5,962.6c-2.4-.3-3.7-2.1-3.4-3.9l10-65.9c.3-1.9,2-3.1,3.9-2.9,1.9.3,3.1,2,2.9,3.9l-10,65.9c-.3,1.7-1.7,2.9-3.4,2.9Z"/>
  <path d="M850.1,969.5c-1.9,0-3.4-1.5-3.4-3.4v-35c0-1.8,1.4-3.3,3.1-3.4,21-1.7,35.5-8.1,44.3-19.4,17.7-22.8,10.8-64,3.4-107.6-1.4-8.2-2.8-16.7-4.1-25.2-.5-1.5-3.6-11.4-10.4-21.4-1.1-1.6-.7-3.7.9-4.7,1.6-1.1,3.7-.7,4.7.9,8,11.7,11.3,23.1,11.4,23.5,1.4,8.9,2.8,17.4,4.2,25.7,7.6,45.1,14.8,87.8-4.7,113-9.6,12.4-24.7,19.5-46,21.8v31.9c0,1.9-1.5,3.4-3.4,3.4h0Z"/>
  <path d="M850.1,934.5c-23.5,0-41.3-6.6-42.1-6.9-1.8-.7-2.7-2.6-2-4.4.7-1.8,2.6-2.7,4.4-2,.2,0,17.5,6.4,39.7,6.4s3.4,1.5,3.4,3.4-1.5,3.4-3.4,3.4h0Z"/>
  <path d="M850.1,960.1s-13.6,11.8-27.2,2.2c-13.7-9.6-16.9-39.5-16.9-39.5l44.1,8.2v29h0Z"/>
  <path d="M879.1,852.2c-1.5,0-2.8-.9-3.3-2.4l-13.9-44.4c-.6-1.8.4-3.7,2.2-4.3s3.7.4,4.3,2.2l13.9,44.4c.6,1.8-.4,3.7-2.2,4.3-.3,0-.7.2-1,.2Z"/>
  <path class="st1" d="M712.3,753.9c-1.3,0-2.6-.8-3.1-2-.8-1.7,0-3.7,1.7-4.5l108.1-47.9c1.7-.8,3.7,0,4.5,1.7s0,3.7-1.7,4.5l-108.1,47.9c-.5.2-.9.3-1.4.3Z"/>
  <rect x="718.7" y="1086.7" width="456.9" height="300.4" rx="9" ry="9"/>
  <circle class="st3" cx="947.2" cy="1236.9" r="36.5"/>
  <path d="M370.3,1311.3c-1.3,0-2.5-.7-3.1-1.9-.8-1.7-.1-3.7,1.6-4.6,98.8-47.4,211.2-60,212.4-60.2,1.9-.2,3.6,1.2,3.8,3,.2,1.9-1.2,3.6-3,3.8-1.1,0-112.4,12.6-210.1,59.5-.5.2-1,.3-1.5.3h-.1Z"/>
  <path d="M581.6,1487.6c-1.1,0-2.1-.5-2.8-1.4-1.1-1.5-.8-3.7.8-4.8l77.3-55.7c1.5-1.1,3.7-.8,4.8.8,1.1,1.5.8,3.7-.8,4.8l-77.3,55.7c-.6.4-1.3.6-2,.6Z"/>
  <path d="M581.6,1251.4c-1.9,0-3.4-1.5-3.4-3.4v-170.7c0-1.9,1.5-3.4,3.4-3.4s3.4,1.5,3.4,3.4v170.7c0,1.9-1.5,3.4-3.4,3.4Z"/>
  <path class="st3" d="M1336.5,427.7c39.3,30.8,46.1,87.6,15.3,126.9-30.8,39.3-87.6,46.1-126.9,15.3s-46.1-87.6-15.3-126.9c30.8-39.3,87.6-46.1,126.9-15.3Z"/>
  <path class="st2" d="M1228.1,699.9l201.2,7.5-17.2,216.7c-3.8,47.8-40.8,86.3-88.4,92-55.4,6.6-105.5-33.1-111.9-88.5-3.8-32.9-10.1-67.7-20.5-94-27.2-68.8,36.8-133.6,36.8-133.6h0Z"/>
  <path d="M1311.6,1020.2c-23.3,0-45.7-7.7-64.2-22.4-21.9-17.3-35.8-42.1-39-69.9-4.5-39.2-11.4-70.6-20.3-93.1-27.7-70,36.9-136.6,37.6-137.3s1.6-1,2.6-1l201.3,7.5c.9,0,1.8.4,2.4,1.1.6.7.9,1.6.9,2.5l-17.2,216.7c-3.9,49.2-42.3,89.2-91.4,95.1-4.2.5-8.4.8-12.6.8h-.1ZM1229.5,703.4c-7.9,8.6-59.3,67.7-35.1,128.9,9.2,23.1,16.1,55,20.7,94.9,3,26,15.9,49.2,36.4,65.3,20.4,16.1,45.9,23.3,71.7,20.2,45.8-5.5,81.7-42.8,85.4-88.8l17-213.2-196.1-7.3h0Z"/>
  <path class="st0" d="M1149.8,883.9l9.1-144.8s-192.5,28-256.1,40.5c-14.6,2.9-25.3,16.4-25.3,31.9s10.9,29.1,25.7,32c61.3,11.8,246.5,40.5,246.5,40.5h0Z"/>
  <path class="st0" d="M1523.3,672.2h-3.3c-11,0-356.3,41-361,41.9-46,8.8-80.6,49-80.6,97.4s44.4,99.2,99.2,99.2,328.2,39.5,333.8,39.8c3,.2,5.8.3,8.5.3,76.9,0,139.3-62.4,139.3-139.3s-60.6-137.5-136.1-139.2h.2Z"/>
  <path d="M1520.1,954.2c-78.7,0-142.7-64-142.7-142.7s64-142.7,142.7-142.7,142.7,64,142.7,142.7-64,142.7-142.7,142.7ZM1520.1,675.5c-74.9,0-135.9,61-135.9,135.9s61,135.9,135.9,135.9,135.9-61,135.9-135.9-61-135.9-135.9-135.9h0Z"/>
  <path class="st2" d="M1637,811.4c0,64.6-52.4,116.9-116.9,116.9s-116.9-52.4-116.9-116.9,52.4-116.9,116.9-116.9,116.9,52.4,116.9,116.9Z"/>
  <path d="M1177.7,914c-56.6,0-102.6-46-102.6-102.6s46-102.6,102.6-102.6,3.4,1.5,3.4,3.4-1.5,3.4-3.4,3.4c-52.8,0-95.8,43-95.8,95.8s43,95.8,95.8,95.8,3.4,1.5,3.4,3.4-1.5,3.4-3.4,3.4h0Z"/>
  <path class="st2" d="M1425.4,682c-26.7-26.8-59.2-33.3-92.3-15.4-27.9-18.2-52.4,3.7-52.4,3.7,0,0-12.2-6.5-25.7-2-11,3.7-13.4,6.3-22.7,12.9-28.1-9.6-57.3,27.6-54.4,52.3,1.4,11.7,10.8,15.5,21.8,14,8.6-1.1,16-5.5,21.2-11.9,1.1,7.6,6.6,14.2,14.7,16.5,11.5,3.2,21.7-2.3,28.2-11.1,2.6,9.4,13.9,14.6,24.4,12.9,16.5-2.7,26.1-16.6,33.1-30.7,4,7.9,17.8,10.3,26.7,6.7,16.9-6.8,31.8-24.6,39.7-41.2,11.8-.9,37.5-6.6,37.5-6.6h.2Z"/>
  <path d="M1284.2,757.5c-8.8,0-16.9-4-21.1-10.4-7.8,8-18.1,11-28.3,8.1-7.1-2-12.6-6.8-15.4-13.2-5.4,4.7-12,7.8-19.2,8.7-7.7,1-14.2-.4-18.8-4-3.9-3-6.2-7.4-6.9-13.1-1.8-15.5,7.7-35.5,22.6-47.6,11.1-9,23.3-12.1,34.5-9,1.1-.8,2-1.5,3-2.1,6.2-4.5,9.7-7,19.3-10.2,11.4-3.8,21.9-.5,26.3,1.3,6.3-4.7,28.4-18.5,53-3.7,33.1-17,66.6-11.1,94.6,17,.9.9,1.2,2.2.9,3.4-.4,1.2-1.3,2.1-2.5,2.4-1,.2-23.5,5.2-36,6.5-7.5,14.8-22.2,33.7-40.7,41.2-8.4,3.4-20.5,2.2-27.3-3.7-6.7,12.3-16.6,25.2-33.2,27.9-1.6.3-3.1.4-4.7.4h-.1ZM1263.8,737.5c1.9.3,2.9,1.2,3.3,2.5,2,7.3,11.3,11.9,20.6,10.4,15.7-2.5,24.6-16.7,30.6-28.8.6-1.2,1.8-1.9,3-1.9s2.5.7,3.1,1.9c3.2,6.3,15,8,22.4,5.1,17.4-7,31.3-25.7,37.9-39.5.5-1.1,1.6-1.8,2.8-1.9,7.9-.6,22.4-3.5,30.7-5.2-25.2-22.3-54.7-26.1-83.6-10.5-1.1.6-2.4.5-3.5,0-25.3-16.5-47.3,2.6-48.2,3.4-1.1.9-2.6,1.1-3.9.5,0,0-11.2-5.8-23-1.8-8.6,2.9-11.5,5-17.4,9.3-1.3.9-2.7,2-4.4,3.1-.9.6-2,.8-3.1.4-12.7-4.3-24.1,2.7-29.7,7.3-13,10.6-21.7,28.4-20.2,41.4.4,3.8,1.9,6.6,4.3,8.5,3.9,3.1,9.6,3.1,13.7,2.6,7.4-.9,14.1-4.7,19-10.6.9-1,2.3-1.5,3.5-1.1,1.3.4,2.3,1.4,2.5,2.8,1,6.6,5.7,11.8,12.3,13.7,8.9,2.5,18.1-1.1,24.5-9.8.6-.9,1.7-1.4,2.8-1.4v-.3Z"/>
  <path d="M1220.9,739c-2.5-.5-3.7-2.3-3.3-4.1l11.4-54.5c.4-1.8,2.2-3,4-2.6s3,2.2,2.6,4l-11.4,54.5c-.3,1.6-1.8,2.7-3.3,2.7h0Z"/>
  <path d="M1263.8,744.3c-2.6-.5-3.8-2.4-3.3-4.2l16.8-70.7c.4-1.8,2.3-3,4.1-2.5,1.8.4,3,2.3,2.5,4.1l-16.8,70.7c-.4,1.6-1.8,2.6-3.3,2.6h0Z"/>
  <path d="M1321.4,726.5c-2.5-.4-3.7-2.3-3.3-4.1l11.6-56.6c.4-1.8,2.2-3,4-2.7,1.8.4,3,2.2,2.7,4l-11.6,56.6c-.3,1.6-1.8,2.7-3.3,2.7h0Z"/>
  <path class="st2" d="M1359.7,932.4c-1.4-68.9-55.9-94.6-73.2-101.8-7.7-3.2-15.9-4.8-24.2-4.7-4,0-13.7,2.3-13.7,2.3,0,0-7.2-9-8.6-11.3-11.5-19.9-54.3-81.3-81-39.9-12.9,20,9.2,49.5,17.8,68.7,10.6,23.7,31.2,87.6,35.9,87.8,14.9.6,35.7,2.8,59.6,3.5,58.4,1.5,87.4-4.4,87.4-4.4v-.2Z"/>
  <path d="M1212.6,936.8c-1.5,0-2.8-1-3.3-2.4-1.2-3.3-25.5-64.6-35.7-87.4-1.8-4-4.2-8.4-6.7-13.2-9.8-18.4-22.1-41.3-10.8-58.7,6.8-10.6,15.3-15.9,25.1-15.6,29.1.7,58.5,50,61.7,55.6.8,1.3,4.3,5.8,7,9.2,3.2-.7,9.1-1.9,12.3-1.9,8.6,0,17.5,1.7,25.5,5,27.6,11.4,74,40.1,75.4,104.9,0,1.9-1.5,3.4-3.3,3.5-1.9,0-3.4-1.5-3.5-3.3-1.3-60.9-45.1-88-71.1-98.7-7.2-3-15.1-4.4-22.9-4.5-2.9,0-10.3,1.6-12.9,2.2-1.3.3-2.6-.2-3.4-1.2-.8-.9-7.4-9.2-8.9-11.8-10.3-17.8-35.3-51.7-56-52.2-7.4-.2-13.7,3.9-19.2,12.5-9.1,14,2.1,35,11.1,51.8,2.6,4.9,5,9.4,6.9,13.6,10,22.4,35.7,86.9,36.1,88.4.4,1.8-.7,3.7-2.6,4.1h-.8,0Z"/>
  <path class="st2" d="M743.7,831.8c0,17,13.8,30.8,30.8,30.8s30.8-13.8,30.8-30.8-13.8-30.8-30.8-30.8-30.8,13.8-30.8,30.8Z"/>
  <path d="M780.2,840.7c-1.1,0-2.1-.5-2.8-1.4l-11.3-15.8c-1.1-1.5-.7-3.7.8-4.8s3.7-.7,4.8.8l11.3,15.8c1.1,1.5.7,3.7-.8,4.8-.6.4-1.3.6-2,.6h0Z"/>
  <path d="M825.8,816c0,3.8,3.1,6.9,6.9,6.9s6.9-3.1,6.9-6.9-3.1-6.9-6.9-6.9-6.9,3.1-6.9,6.9Z"/>
  <path d="M885.9,866h-16.3c-1.9,0-3.4-1.5-3.4-3.4s1.5-3.4,3.4-3.4h16.3c1.9,0,3.4,1.5,3.4,3.4s-1.5,3.4-3.4,3.4Z"/>
  <path d="M1520.2,747.5c-35.4,0-64.2,28.7-64.2,64.2s28.7,64.2,64.2,64.2,64.2-28.7,64.2-64.2h-64.2v-64.2Z"/>
  <path class="st3" d="M1536.6,732v64.2h64.2c0-35.4-28.7-64.2-64.2-64.2Z"/>
  <path class="st2" d="M819.6,1189.9c29.4-6.9,53.3-20.3,51-35.6-2.6-17.2-24.2-23.2-41.3-21.6-17.2,1.6-76.6,8.4-76.6,8.4,0,0,71-48.1,55.4-66.5-15.6-18.5-57.1-.9-73.2,8.1-29.1,16.2-89.3,59.3-104.1,83.2-14.8,23.9,1.2,66.4,1.2,66.4l-42.5,12.9c-51.4,15.6-80.7,69.7-65.6,121.3,16.2,55.3,76.3,84.8,129.9,63.7,5.7-2.2,11.6-4.6,17.9-7.1,98.9-39.3,65.7-100.4,65.7-100.4,26.4-12.3,107.9-10.5,105.2-47.1-1.6-21.2-14.8-25-25.6-24.5,22.5-5.6,53.6-18,49.7-42.8-3.4-21.9-31.1-20.9-47-18.4h-.1Z"/>
  <path d="M617.9,1440.4c-15.3,0-30.6-3.5-44.6-10.3-25.5-12.5-44.7-35.3-52.7-62.6-15.5-53.1,14.9-109.4,67.9-125.5l39.1-11.9c-3.5-10.9-12.8-44.7.3-66,15.7-25.3,77.8-69,105.3-84.4,2.3-1.3,57.1-31.4,77.5-7.3,2.5,2.9,3.5,6.6,2.9,10.7-2.3,16.9-31.5,40.8-48.1,53.1,18.6-2.1,51.5-5.8,63.5-6.9,20.2-1.9,42.2,6,45,24.5,2,13.5-11.9,24.4-30,31.9,15,2,24.1,9.5,26,22,2.9,18.3-10.3,32.8-38.3,42.5,7,3.3,13.2,10.4,14.3,25,2.1,28.3-38.9,35.8-71.8,41.8-12.4,2.3-24.3,4.4-32.3,7.4,2.8,6.9,7.7,23.6.6,43.1-8.7,24-32.1,43.8-69.6,58.7-6.3,2.5-12.3,4.9-17.9,7.1-11.9,4.7-24.5,7-37.1,7h0ZM787,1069.9c-17.6,0-40.4,10.1-50.4,15.7-28,15.6-88.4,58.7-102.8,82-13.8,22.2,1.3,63,1.5,63.4.3.9.3,1.9,0,2.7s-1.2,1.5-2.1,1.8l-42.5,12.9c-49.4,15-77.8,67.5-63.3,117.1,7.4,25.4,25.4,46.7,49.2,58.4,23.8,11.7,51.6,12.8,76.2,3.1,5.7-2.2,11.6-4.6,17.9-7.1,35.5-14.1,57.6-32.4,65.6-54.5,8.2-22.4-1.6-40.9-1.7-41.1-.4-.8-.5-1.8-.2-2.7.3-.9.9-1.6,1.8-2,8.6-4,22.4-6.5,37-9.2,31.8-5.8,67.9-12.4,66.2-34.6-1.1-15-8.3-22-22.1-21.3-1.8,0-3.3-1.2-3.5-2.9-.3-1.7.8-3.4,2.5-3.8,23.4-5.9,50.5-17.4,47.1-38.9-3-18.9-28.3-17.9-43.1-15.6-1.8.3-3.5-.9-3.9-2.7-.4-1.8.8-3.6,2.6-4,30.7-7.3,50.2-20,48.4-31.7-2.1-14.2-21-20.2-37.6-18.7-16.9,1.6-75.9,8.3-76.5,8.4-1.5.2-3-.7-3.6-2.2-.5-1.5,0-3.1,1.3-4,14.8-10,53.8-39.7,56-56.1.3-2.2,0-3.9-1.3-5.4-4.2-5-10.9-6.9-18.5-6.9h-.1Z"/>
  <path d="M655.6,1311.3c-1.5,0-2.8-.9-3.3-2.4l-26.9-86.2c-.6-1.8.4-3.7,2.2-4.3,1.8-.6,3.7.4,4.3,2.2l26.9,86.2c.6,1.8-.4,3.7-2.2,4.3-.3,0-.7.2-1,.2h0Z"/>
  <path d="M707.1,1274.1c-1.6,0-3.1-1.2-3.4-2.8-.3-1.9.9-3.6,2.8-3.9l122.2-21.1c1.9-.3,3.6.9,3.9,2.8.3,1.9-.9,3.6-2.8,3.9l-122.2,21.1h-.6,0Z"/>
  <path d="M702.7,1214c-1.6,0-3.1-1.2-3.4-2.8-.3-1.9.9-3.6,2.8-3.9l126.8-21.9c1.9-.3,3.6.9,3.9,2.8.3,1.9-.9,3.6-2.8,3.9l-126.8,21.9h-.6,0Z"/>
  <path d="M697.2,1156.9c-1.6,0-3-1.1-3.3-2.7-.4-1.8.8-3.7,2.6-4.1l55.5-12.3c1.8-.4,3.7.8,4.1,2.6.4,1.8-.8,3.7-2.6,4.1l-55.5,12.3h-.8Z"/>
</svg>