<?xml version="1.0" encoding="UTF-8"?>
<svg id="Layer_1" xmlns="http://www.w3.org/2000/svg" version="1.1" viewBox="0 0 2000 2000">
  <!-- Generator: Adobe Illustrator 29.5.1, SVG Export Plug-In . SVG Version: 2.1.0 Build 141)  -->
  <defs>
    <style>
      .st0 {
        fill: #c5cbe4;
      }

      .st1 {
        fill: #7388e7;
      }

      .st2 {
        fill: #fff;
      }

      .st3 {
        fill: #4763e2;
      }
    </style>
  </defs>
  <path class="st3" d="M514.1,556.5c8,53.6,57.8,90.6,111.4,82.6,53.6-7.9,90.6-57.8,82.6-111.4-7.9-53.6-57.8-90.6-111.4-82.6-53.6,7.9-90.6,57.8-82.6,111.4Z"/>
  <circle class="st3" cx="757.6" cy="1074.9" r="460.2" transform="translate(-538.2 850.5) rotate(-45)"/>
  <path class="st2" d="M1034.5,548.2c217.9,69.3,215.9,237.2,288,302.2l-266.3,210.5c-33.7-41.2-127.8-165.2-178.7-223.1-94.3-107.5-180.3-148.7-245.8-73.4l-153.3-43.7s169.1-295.5,556.1-172.4Z"/>
  <path d="M1056.2,1064.6c-1.1,0-2.1-.5-2.9-1.4-11.4-14-29.9-37.5-51.2-64.8-41.8-53.5-93.9-120-127.4-158.3-64.3-73.4-120.7-110.6-167.3-110.6-27,0-51.5,12.6-72.8,37.1-.9,1.1-2.4,1.5-3.8,1.1l-153.3-43.7c-1.1-.3-2-1.1-2.4-2.2-.4-1.1-.3-2.2.2-3.2.4-.7,43.8-75.3,134.1-133.7,53.1-34.2,111.8-56.3,174.5-65.6,78.3-11.6,163-3.1,251.8,25.2,150.2,47.8,196.9,141.8,234.4,217.4,17.4,35.1,32.5,65.4,54.9,85.6.8.7,1.3,1.8,1.2,2.9,0,1.1-.5,2.1-1.4,2.8l-266.3,210.5c-.7.5-1.5.8-2.3.8ZM707.4,722.2c48.9,0,107.1,38,172.9,113.1,33.7,38.4,85.8,105,127.7,158.6,19.9,25.5,37.3,47.7,48.8,61.8l260.1-205.6c-21.7-21-36.4-50.7-53.4-84.8-36.9-74.3-82.9-166.8-230.1-213.7-198.5-63.2-338-13.3-420,39.6-76.8,49.6-118.9,110.9-129.2,127l146.3,41.8c22.5-25.1,48.2-37.8,76.6-37.9h.2Z"/>
  <circle cx="1107.1" cy="730.4" r="44.3" transform="translate(141.9 1640.1) rotate(-76.7)"/>
  <path class="st2" d="M624.1,802.8c35.7-37.5,28.2-98.3-15.4-126.1-34.9-22.2-80.8-15.1-107.4,16.5,0,0-34.4,38.4-44.1,52.6-25.6,37.3-47.6,101-57.9,153.3-10.3,52.4-26.5,99.1,42.3,136.3,68.8,37.2,74.7-24.6,66.4-37.4-8.3-12.8-33.2-20-33.2-42.8s0-15.7,1.1-24.1c0,0,23.8,40,56.9,13.4-.7,2.2-1.5,4.4-2.4,6.7-10.5,26.7-20.4,60.8,14.2,69.5,34.6,8.6,50-45,64.7-87,14.1-40.2,24.3-77.1,12.1-120.1-1.1-3.8,0-7.9,2.6-10.7h0Z"/>
  <path d="M1462.6,1432.6h-433.3s-26.2,102.6-26.2,102.6h484.8c-13.2-90.2-25.3-102.6-25.3-102.6Z"/>
  <path d="M1487.9,1538.9h-484.8c-1.1,0-2.2-.5-2.9-1.4-.7-.9-.9-2.1-.7-3.2l26.2-102.6c.4-1.6,1.9-2.8,3.6-2.8h433.3c1,0,2,.4,2.6,1.1,1.3,1.4,13.4,15.8,26.3,104.7.2,1.1-.2,2.1-.9,3-.7.8-1.7,1.3-2.8,1.3ZM1007.9,1531.5h475.7c-10.5-70.4-20.1-90.5-22.9-95.2h-428.5s-24.3,95.2-24.3,95.2Z"/>
  <path class="st2" d="M1592.1,985.6c87.1,155.5,205.8,472.1-37.9,553.9-127.6,42.8-240-28.9-318.1-106.9h-199.4l-1.7-356.6c-.4-86.5,49.4-165.8,128.3-201.3,1.9-.9,3.8-1.7,5.7-2.5l33.8-12.4,113.9-20c74.3-8.7,198.2,8,275.5,145.9Z"/>
  <path d="M1477.5,1555.9c-98.9,0-184.1-61.1-242.9-119.6h-197.9c-2,0-3.7-1.6-3.7-3.7l-1.7-356.6c-.4-88.5,50.8-168.8,130.5-204.7,1.9-.9,3.8-1.7,5.8-2.6,1.9-.8,4.1,0,4.9,1.9.8,1.9,0,4.1-1.9,4.9-1.9.8-3.8,1.7-5.7,2.5-77,34.7-126.5,112.4-126.1,198l1.7,352.9h195.7c1,0,1.9.4,2.6,1.1,72.3,72.2,185.5,149.2,314.3,106,62.7-21,105.2-59.5,126.3-114.2,45.9-119.1-16.6-302.4-90.4-434.3-83.4-148.9-217.9-150.3-271.8-144-2,.2-3.9-1.2-4.1-3.2-.2-2,1.2-3.9,3.2-4.1,55.4-6.5,193.6-5,279.1,147.8,22.4,39.9,63.5,120.6,88.1,212.3,24.7,92.2,25.7,169.1,2.8,228.4-22,56.9-66,96.8-130.9,118.6-26.7,9-52.8,12.9-77.9,12.9Z"/>
  <path class="st0" d="M956.9,1260.7h-52.2c-3.5-13.6-8.6-26.2-15.3-37.8l36.7-36.7-47.9-47.9-35.8,35.8c-11.8-7.4-24.8-13.1-38.6-16.7v-49.9s-67.8,0-67.8,0c0,0,0,48.9,0,48.9-14.3,3.3-27.9,8.8-40.1,16.2l-34.3-34.3-47.9,47.9,34.1,34.1c-7.5,12.3-13.1,25.9-16.5,40.3,0,0-48.4,0-48.4,0v67.8h49c3.6,14.1,9.4,27.3,17,39.3l-35.1,35.1,47.9,47.9,36-36c11.8,6.9,24.8,12,38.5,15.2v51.6h67.8s0-52.6,0-52.6c13.2-3.5,25.6-8.8,37-15.7l37.4,37.4,47.9-47.9-37.6-37.6c6.7-11.3,12-23.5,15.3-36.6.3-.2,53.1-.2,53.1-.2v-67.8h0ZM810.5,1354.2c-69,39.6-139.9-31.2-100.3-100.3,4.5-7.9,11.1-14.4,19-19,69-39.6,139.9,31.2,100.3,100.3-4.5,7.9-11.1,14.4-19,19Z"/>
  <path d="M1298.2,665.9c26,56.4,1.4,123.2-55,149.3-56.4,26-123.2,1.4-149.3-55-26-56.4-1.4-123.2,55-149.3,56.4-26,123.2-1.4,149.3,55Z"/>
  <path class="st2" d="M1288.6,776.9c-39.9,21-73.3,3.4-76.7-29.6,0,0-50.3-97.9-93.7-83.4-26.5,13.3-36.9,45.1-29.4,80.4,3.3,15.5,9.4,58,19.7,88.1,10.2,29.9,23.5,63.8,94.5,27.4l22.5,48.7,97.2-58-33.9-73.5Z"/>
  <path d="M1213.2,899.3c-1.6,0-3.1-1.1-3.6-2.7l-9.2-31.6c-28.2,13.8-49.5,17.5-65.1,11.2-18.5-7.5-25.5-27.9-30.6-42.7-7.9-23.1-13.4-53.3-17-73.3-1.1-6.2-2.1-11.5-2.8-15.2-8.1-38.4,3.9-70.7,31.4-84.5,1.8-.9,4.1-.2,5,1.7.9,1.8.2,4.1-1.7,5-24.3,12.2-34.9,41.4-27.5,76.3.8,3.8,1.8,9.2,2.9,15.4,3.6,19.8,8.9,49.7,16.7,72.3,6,17.6,12.1,32.6,26.3,38.3,14.2,5.7,34.8,1.5,62.9-12.9,1-.5,2.1-.5,3.2-.1,1,.4,1.8,1.3,2.1,2.4l10.4,35.9c.6,2-.6,4-2.5,4.6-.3,0-.7.1-1,.1Z"/>
  <path d="M1322.5,854.1c-1.4,0-2.7-.8-3.4-2.2l-33.9-73.5c-.9-1.9,0-4.1,1.8-4.9,1.9-.9,4.1,0,4.9,1.8l33.9,73.5c.9,1.9,0,4.1-1.8,4.9-.5.2-1,.3-1.5.3Z"/>
  <path d="M1202.8,863.4c-1.3,0-2.6-.7-3.3-2-1-1.8-.3-4.1,1.5-5l24.9-13.2c1.8-1,4-.3,5,1.5,1,1.8.3,4.1-1.5,5l-24.9,13.2c-.6.3-1.1.4-1.7.4Z"/>
  <path d="M1166.7,753.1c1.7,3.8,0,8.2-3.7,9.9-3.8,1.7-8.2,0-9.9-3.7-1.7-3.8,0-8.2,3.7-9.9,3.8-1.7,8.2,0,9.9,3.7Z"/>
  <path d="M1110.4,764.1c1.7,3.8,0,8.2-3.7,9.9-3.8,1.7-8.2,0-9.9-3.7-1.7-3.8,0-8.2,3.7-9.9,3.8-1.7,8.2,0,9.9,3.7Z"/>
  <path d="M1230,845.9s12.4,43.1-16.8,52.1l-10.4-38.3,27.2-13.9Z"/>
  <path d="M1612.1,1344.1c-1.9,0-3.5-1.4-3.7-3.4-.4-3.8-9.9-93.7-103.3-110.3-98.5-17.5-163.1-28.9-265.2-84.3-1.8-1-2.5-3.2-1.5-5,1-1.8,3.2-2.5,5-1.5,101,54.8,165.1,66.2,262.2,83.4,99.8,17.7,110.1,116.1,110.2,117.1.2,2-1.3,3.8-3.3,4-.1,0-.2,0-.3,0Z"/>
  <path d="M1426.9,1214.3c-1.7,0-3.2-1.1-3.6-2.8l-40.6-170c-.5-2,.8-4,2.7-4.5,2-.5,4,.8,4.5,2.7l40.6,170c.5,2-.8,4-2.7,4.5-.3,0-.6.1-.9.1Z"/>
  <path d="M1227.5,968.3c-.9,0-1.7,0-2.6,0-57.2-3.9-59.5-91.2-59.6-95,0-2,1.6-3.7,3.6-3.8,2.1,0,3.7,1.6,3.8,3.6,0,.8,2.3,84.2,52.7,87.7,51.9,3.7,156.4-121.8,157.5-123.1,1.3-1.6,3.6-1.8,5.2-.5,1.6,1.3,1.8,3.6.5,5.2-4.3,5.2-104.9,125.8-161.1,125.8Z"/>
  <path d="M1236.1,1436.3c-1,0-2-.4-2.7-1.2-.5-.5-12.1-13.2-95.1-138.5-1.1-1.7-.7-4,1-5.1,1.7-1.1,4-.7,5.1,1,82.6,124.7,94.2,137.3,94.3,137.5,1.4,1.5,1.3,3.8-.1,5.2-.7.7-1.6,1-2.6,1Z"/>
  <path d="M994,995.1l89.4,203.1c7.3,16.5,27.3,23.3,43.5,14.7,15.8-8.3,21.7-27.8,13-43.1l-112.6-194.7-33.3,20Z"/>
  <path class="st1" d="M921,583.9c-16.6-17.1-32.7-29.4-47.7-36.8-25.4-12.4-44.3-8.5-55.6-3l-33.2,16c-11.2,5.7-25.3,18.1-31.2,45-3.6,16.4-3.9,36.6-.9,60.3,5.8,45.2,23.5,100.1,49.7,154.4,26.2,54.3,58.2,102.2,90,134.9,16.6,17.1,32.7,29.4,47.7,36.8,25.4,12.4,44.3,8.5,55.6,3,.6-.3,1.2-.6,1.9-1l30.4-14.6c11.3-5.5,26.1-17.8,32.2-45.4,3.6-16.4,3.9-36.7.9-60.3-5.8-45.2-23.5-100.1-49.7-154.4-26.2-54.3-58.2-102.2-90-134.9Z"/>
  <path class="st2" d="M950.6,748c51.9,107.5,65.9,208.3,31.1,225.1-34.7,16.8-105-56.8-156.9-164.3-51.9-107.5-65.9-208.3-31.1-225.1,34.7-16.8,105,56.8,156.9,164.3Z"/>
  <path d="M971,979.1c-39.1,0-101.4-69-149.5-168.7-53.6-111-66.6-212.1-29.4-230,37.1-17.9,108.2,55,161.9,166,53.6,111,66.6,212.1,29.4,230-3.8,1.8-7.9,2.7-12.3,2.7ZM804.8,585c-3.4,0-6.6.7-9.5,2.1-32.3,15.6-17.2,116.4,32.9,220.1,45.6,94.5,107.4,164.6,142.5,164.7,3.4,0,6.6-.7,9.5-2.1,32.3-15.6,17.2-116.4-32.9-220.1-45.6-94.5-107.4-164.7-142.5-164.7Z"/>
  <path d="M924.8,760.5c30.6,63.4,38.8,122.8,18.4,132.7-20.5,9.9-61.9-33.5-92.5-96.8-30.6-63.4-38.8-122.8-18.4-132.7,20.5-9.9,61.9,33.5,92.5,96.8Z"/>
  <path class="st2" d="M1234.4,1138.7l-70.3-36.2s-53-77.3-101.3-65.9c0,0,18.2,30.4-4.1,38.3-22.3,7.9-39.7-28.8-39.7-28.8,0,0-43.1,35.6-22.1,69.6,0,0-21.5,48.5,13.6,68.6,0,0-16.7,42.6,24.1,58.1,0,0-4.3,21.6,19.1,33.3,6.5,3.3,79,19.6,79,19.6l1.4,1.1c53.7,41.4,132.2,13.9,148.4-51.9,10.3-42.1-9.6-85.8-48.2-105.7Z"/>
  <path d="M1191.4,1319.6c-21.2,0-42.1-7-59.5-20.3l-.7-.6c-10.5-2.4-72.6-16.4-79.1-19.7-20.2-10.1-21.7-27.2-21.4-34.3-11.2-4.8-19.1-12.2-23.4-22-6.5-14.7-3.1-30.4-1.1-36.9-30.2-19.9-16.7-60.8-13.3-69.9-20.1-35.8,23.4-72.4,23.8-72.8.9-.7,2.1-1,3.2-.8,1.1.2,2.1,1,2.5,2,.2.3,16.3,33.6,35.1,26.9,4-1.4,6.6-3.8,7.8-7.1,3-8.4-3.1-21.5-5.7-25.8-.6-1-.7-2.3-.2-3.3.5-1.1,1.4-1.9,2.6-2.2,48.1-11.3,98.6,58,104.7,66.7l69.5,35.8c40.2,20.7,60.8,65.9,50.1,109.9-7.9,32.2-31.2,57.9-62.5,68.8-10.6,3.7-21.5,5.5-32.3,5.5ZM1018,1052.1c-9.3,9.1-33.6,36.3-17.9,61.7.6,1,.7,2.3.2,3.4-.8,1.9-19.7,45.7,12,63.9,1.6.9,2.3,2.9,1.6,4.6,0,.2-7,18.4,0,34.2,3.8,8.6,11.2,15,21.9,19.1,1.7.6,2.7,2.4,2.3,4.2-.1.8-3.4,19,17.2,29.3,4.5,2.2,50.3,13,78.2,19.3.5.1,1,.4,1.5.7l1.4,1.1c24.2,18.7,55.9,23.8,84.8,13.7,28.9-10.1,50.5-33.9,57.7-63.6,10-40.6-9.1-82.4-46.3-101.5l-70.3-36.2c-.5-.3-1-.7-1.4-1.2-.5-.7-48.6-69.9-92.6-65.2,3,6.4,7.2,18,3.8,27.4-2,5.5-6.1,9.4-12.3,11.6-20.3,7.2-36.2-16.2-42-26.3Z"/>
  <path d="M1048.9,1203.4c-.5,0-.9,0-1.4-.3l-38.4-15.4c-1.9-.8-2.8-2.9-2.1-4.8.8-1.9,2.9-2.8,4.8-2.1l38.4,15.4c1.9.8,2.8,2.9,2.1,4.8-.6,1.4-2,2.3-3.4,2.3Z"/>
  <path d="M1048.2,1252.2c-.5,0-1-.1-1.5-.3l-13.6-6.2c-1.9-.8-2.7-3-1.8-4.9s3-2.7,4.9-1.8l13.6,6.2c1.9.8,2.7,3,1.8,4.9-.6,1.4-2,2.2-3.4,2.2Z"/>
  <path d="M1062.8,1149.7c-.5,0-1-.1-1.5-.3l-65.8-30.3c-1.9-.9-2.7-3.1-1.8-4.9.9-1.9,3.1-2.7,4.9-1.8l65.8,30.3c1.9.9,2.7,3.1,1.8,4.9-.6,1.4-2,2.2-3.4,2.2Z"/>
  <path d="M610.7,1006.7l-21.4,11.4c-4.4-4.8-9.2-8.9-14.5-12.1l7-23-30.1-9.2-6.9,22.5c-6.5-.5-13,0-19.5,1.6l-10.9-20.5-27.8,14.8,10.7,20.1c-5.2,4.5-9.5,9.7-12.9,15.4l-21.5-6.6-9.2,30.1,21.4,6.5c-.4,6.7.3,13.5,2,20.1,0,0-19.8,10.6-19.8,10.6l14.8,27.8,20.1-10.7c4.6,5,9.8,9.1,15.5,12.4l-6.7,22.1,30.1,9.2,6.9-22.6c6.3.2,12.8-.5,19.1-2.2l11.2,21.1s27.8-14.8,27.8-14.8l-11.5-21.5c4.6-4.3,8.6-9.2,11.7-14.5l23.5,7.2,9.2-30.1-23.6-7.2c.3-6.1-.2-12.3-1.7-18.3,0-.2,21.7-11.7,21.7-11.7l-14.8-27.8h0ZM571.1,1076.9c-19.6,31.3-64.1,17.7-63-19.2.1-4.2,1.4-8.3,3.6-11.9,19.6-31.3,64.2-17.7,63,19.2-.1,4.2-1.4,8.3-3.6,11.9Z"/>
  <path d="M479.3,1050.9c-10,0-22.9-3.3-39.4-12.2-65.8-35.6-56.5-80.5-46.7-128.1.8-4,1.7-8.1,2.5-12.2,9.5-48.4,31.3-115,58.5-154.7,9.6-14.1,42.5-50.8,44.4-52.9,27.7-32.9,75.9-40.4,112.1-17.2,21.8,13.9,36,36.5,39.2,62.1,3.1,25.6-5.3,51-23,69.7-1.8,1.9-2.5,4.6-1.8,7.2,12.7,44.7,1.5,83.4-12.1,122.3-1.1,3.2-2.2,6.4-3.4,9.7-13.1,38-27.8,80.7-57.4,80.7-2.7,0-5.4-.3-8.4-1.1-11.2-2.8-19-8.3-23.2-16.5-8.2-15.9-1.3-38.2,6.4-57.9,6.7-17,7.7-29.6,3.1-37.3-3.7-6.1-11.2-9.8-22.4-11-7.5-.9-13.4.7-17.8,4.6-11.3,10.1-11.3,34.5-11.3,49.1s9.6,20.5,18.9,27.7c5.4,4.2,10.5,8.1,13.7,13.1,5.7,8.8,5.3,31.5-6.9,44.6-5.1,5.5-12.9,10.3-25,10.3ZM564.5,667.6c-22.6,0-45,9.7-60.4,28.1-.4.5-34.4,38.5-43.9,52.3-26.6,38.8-47.9,104.3-57.3,151.9-.8,4.1-1.7,8.2-2.5,12.2-9.7,46.7-18,87.1,42.9,120.1,25.6,13.8,44.8,15,55.5,3.4,10.5-11.3,9.4-30.5,6.1-35.6-2.5-3.9-7.2-7.5-12-11.3-9.7-7.5-21.8-16.8-21.8-33.6s0-42.4,13.8-54.7c6-5.4,13.9-7.5,23.6-6.4,13.6,1.5,23,6.4,27.9,14.6,6,10,5.2,24.3-2.5,43.9-6.7,17.1-13.6,38.5-6.7,51.8,3.2,6.3,9.2,10.4,18.4,12.7,28.7,7.2,43.7-36.4,56.9-74.9,1.1-3.3,2.3-6.5,3.4-9.7,13.2-37.8,24.1-75.2,12-117.9-1.4-5,0-10.5,3.5-14.3,16.2-17.1,23.9-40.3,21-63.7-2.9-23.4-15.9-44.1-35.8-56.8-13-8.3-27.6-12.3-42.1-12.3Z"/>
  <path d="M510.1,957.3c-2,0-3.9-.2-5.9-.5-19.2-3.5-31-23-31.5-23.8-1-1.8-.5-4,1.3-5.1,1.8-1,4-.5,5.1,1.3.2.3,10.6,17.5,26.5,20.3,8.2,1.5,16.6-1.2,25-7.9,1.6-1.3,3.9-1,5.2.6,1.3,1.6,1,3.9-.6,5.2-8.2,6.6-16.7,9.9-25.1,9.9Z"/>
  <path d="M508.1,931.1c-2.6-.4-4-2.3-3.7-4.3l4.9-28.9c.3-2,2.3-3.4,4.3-3,2,.3,3.4,2.3,3,4.3l-4.9,28.9c-.3,1.8-1.9,3.1-3.6,3.1Z"/>
  <path d="M1152.7,670.3c0,27.2-22,49.2-49.2,49.2s-49.2-22-49.2-49.2,22-49.2,49.2-49.2,49.2,22,49.2,49.2Z"/>
  <path d="M1096.1,715.2c-29.2,0-52.9-23.7-52.9-52.9s23.7-52.9,52.9-52.9,52.9,23.7,52.9,52.9-23.7,52.9-52.9,52.9ZM1096.1,616.9c-25.1,0-45.5,20.4-45.5,45.5s20.4,45.5,45.5,45.5,45.5-20.4,45.5-45.5-20.4-45.5-45.5-45.5Z"/>
  <path d="M1239.3,691.7c0,26.3-21.3,47.7-47.7,47.7s-47.7-21.3-47.7-47.7,21.3-47.7,47.7-47.7,47.7,21.3,47.7,47.7Z"/>
  <path class="st2" d="M1249.7,742.2c7.7,16.8.4,36.6-16.3,44.3-16.8,7.7-36.6.4-44.3-16.3-7.7-16.8-.4-36.6,16.3-44.3,16.8-7.7,36.6-.4,44.3,16.3Z"/>
  <path d="M1216.3,767.9c-2.7-.4-4-2.4-3.6-4.4l3.9-20.7c.4-2,2.3-3.3,4.3-2.9,2,.4,3.3,2.3,2.9,4.3l-3.9,20.7c-.3,1.8-1.9,3-3.6,3Z"/>
  <path class="st3" d="M1075.3,747.4c-1.7,0-3.3-1.2-3.6-3-.4-2,.9-4,3-4.3l81.7-15.5c2-.4,4,.9,4.3,2.9.4,2-.9,4-3,4.3l-81.7,15.5c-.2,0-.5,0-.7,0Z"/>
  <path class="st3" d="M1165.6,802.6c-17.8,0-34-12.1-38.4-30.1-5.2-21.2,7.8-42.6,29-47.8,10.3-2.5,20.9-.9,29.9,4.6,9,5.5,15.4,14.1,17.9,24.4,2.5,10.3.9,20.9-4.6,29.9-5.5,9-14.1,15.4-24.4,17.9-3.2.8-6.3,1.1-9.4,1.1ZM1165.6,730.9c-2.6,0-5.2.3-7.7.9-8.3,2-15.4,7.2-19.8,14.6-4.5,7.3-5.8,16-3.7,24.3,4.2,17.2,21.7,27.8,38.9,23.6,8.3-2,15.4-7.2,19.8-14.6,4.4-7.3,5.8-16,3.7-24.3-2-8.3-7.2-15.4-14.6-19.8-5.1-3.1-10.8-4.7-16.6-4.7Z"/>
  <path class="st3" d="M1083.9,818.1c-17.8,0-34-12.1-38.4-30.1-2.5-10.3-.9-20.9,4.6-29.9,5.5-9,14.1-15.4,24.4-17.9,21.2-5.2,42.6,7.8,47.8,29,2.5,10.3.9,20.9-4.6,29.9-5.5,9-14.1,15.4-24.4,17.9-3.1.8-6.3,1.1-9.4,1.1ZM1083.9,746.4c-2.5,0-5.1.3-7.7.9-8.3,2-15.4,7.2-19.8,14.6-4.5,7.3-5.8,16-3.7,24.3,4.2,17.2,21.7,27.8,38.9,23.6,8.3-2,15.4-7.2,19.8-14.6,4.4-7.3,5.8-16,3.7-24.3-3.6-14.7-16.8-24.5-31.2-24.5Z"/>
  <path d="M1125.7,811.1c-1.8,0-3.4-1.4-3.7-3.2l-6.8-52c-.3-2,1.2-3.9,3.2-4.2,2-.3,3.9,1.2,4.2,3.2l6.8,52c.3,2-1.2,3.9-3.2,4.2-.2,0-.3,0-.5,0Z"/>
  <path d="M1121.6,824.7c-1.8,0-3.4-1.3-3.7-3.1-.3-2,1.1-3.9,3.1-4.2l16.3-2.5c2-.3,3.9,1.1,4.2,3.1.3,2-1.1,3.9-3.1,4.2l-16.3,2.5c-.2,0-.4,0-.6,0Z"/>
</svg>