<?xml version="1.0" encoding="UTF-8"?>
<svg id="Layer_1" xmlns="http://www.w3.org/2000/svg" version="1.1" viewBox="0 0 2000 2000">
  <!-- Generator: Adobe Illustrator 29.5.1, SVG Export Plug-In . SVG Version: 2.1.0 Build 141)  -->
  <defs>
    <style>
      .st0 {
        fill: #c5cbe4;
      }

      .st1 {
        fill: #7388e7;
      }

      .st2 {
        fill: #fff;
      }

      .st3 {
        fill: #4763e2;
      }
    </style>
  </defs>
  <g id="Layer_11" data-name="Layer_1">
    <g>
      <path class="st3" d="M1208.5,498.4c-145-109-368.9-106.2-492.4,42.5-33.8,40.8-51.5,86-104.8,106.4-48.6,18.6-97.1,3.2-146.7,7.1-97,7.6-176.7,80.6-203.8,172.3-38.2,129.1,5.2,266.9,101.9,358.6,89.4,84.7,219.3,112.3,338.8,116.5,80.9,2.9,161.6-5.1,241.7-15,70.7-8.7,139.5-22.3,198.9-64.4,184.2-130.7,274.7-418.9,157.9-621.2-23.6-40.9-55.1-75.4-91.5-102.7h0Z"/>
      <path class="st3" d="M656.8,530.2c-1.8,51.5-45,91.7-96.5,89.9s-91.7-45-89.9-96.5c1.8-51.5,45-91.7,96.5-89.9,51.5,1.8,91.7,45,89.9,96.5h0Z"/>
      <rect class="st2" x="497" y="714.3" width="1173.6" height="927.3"/>
      <path d="M1670.6,1645H496.9c-1.9,0-3.5-1.6-3.5-3.5v-927.3c0-1.9,1.6-3.5,3.5-3.5h1173.6c1.9,0,3.5,1.6,3.5,3.5v927.3c0,1.9-1.6,3.5-3.5,3.5h0ZM500.5,1638h1166.6v-920.2H500.5v920.2Z"/>
      <path d="M1509.8,812.1H496.9c-1.9,0-3.5-1.6-3.5-3.5s1.6-3.5,3.5-3.5h1012.8c1.9,0,3.5,1.6,3.5,3.5s-1.6,3.5-3.5,3.5h.1Z"/>
      <path d="M565.5,758.2c0,9-7.3,16.3-16.3,16.3s-16.3-7.3-16.3-16.3,7.3-16.3,16.3-16.3,16.3,7.3,16.3,16.3Z"/>
      <path class="st1" d="M685.7,758.2c0,9-7.3,16.3-16.3,16.3s-16.3-7.3-16.3-16.3,7.3-16.3,16.3-16.3,16.3,7.3,16.3,16.3Z"/>
      <path class="st3" d="M625.6,758.2c0,9-7.3,16.3-16.3,16.3s-16.3-7.3-16.3-16.3,7.3-16.3,16.3-16.3,16.3,7.3,16.3,16.3Z"/>
      <circle class="st2" cx="1351.2" cy="877.8" r="398.3"/>
      <path d="M1351.2,1279.5c-221.5,0-401.8-180.2-401.8-401.8s180.2-401.8,401.8-401.8,401.8,180.2,401.8,401.8-180.2,401.8-401.8,401.8ZM1351.2,483c-217.7,0-394.7,177.1-394.7,394.7s177.1,394.7,394.7,394.7,394.7-177.1,394.7-394.7-177.1-394.7-394.7-394.7Z"/>
      <path d="M1351.2,1276c200.1,0,365.7-147.6,394-339.9-63.4-109.6-157.3-157.3-281.1-163l-142.1.6c-79.4,4.3-170,34.8-210.8,98.3-16.3,25.4-153.3-1.6-153.3-1.6-15,41.9,15.5,143.5,38.7,188.7,66,128.8,200,216.9,354.7,216.9h-.1Z"/>
      <path class="st2" d="M1363.6,848.8c51.2,0,120.7-39.1,158.2-69.4-18.5-3.2-37.7-5.3-57.8-6.2l-142.1.6c-16.7.9-33.9,3-51.1,6.3,7.7,21.5,31.4,68.7,92.7,68.8h.1Z"/>
      <path d="M1351.2,1279.5c-151.5,0-288.6-83.9-357.8-218.8-22.1-43.1-54.9-146.8-38.9-191.5.6-1.6,2.3-2.6,4-2.3,52.1,10.3,138.7,20.2,149.7,3.2,43.4-67.5,138.8-95.9,213.6-99.9l142.3-.6c64.9,3,118.8,17.1,165,43,48.6,27.3,87.6,67.2,119.2,121.8.4.7.5,1.5.4,2.3-13.9,94.4-61.4,181.2-133.7,244.2-73.1,63.6-166.7,98.7-263.8,98.7h0ZM960.2,874.4c-11.8,40.9,15.4,136.1,39.5,183.1,67.9,132.6,202.6,215,351.5,215s361.6-144.2,390.3-335.6c-60.1-103.3-148.4-154.2-277.6-160.2l-141.9.6c-72.9,3.9-165.9,31.4-207.9,96.7-16.2,25.3-130,5.1-153.9.5h0Z"/>
      <path class="st2" d="M1240.2,1184.2c-1.5,0-3-1-3.4-2.6-60.1-214.4-80.7-342.1-80.9-343.3-.3-1.9,1-3.7,2.9-4s3.7,1,4,2.9c.2,1.3,20.7,128.6,80.8,342.5.5,1.9-.6,3.8-2.4,4.3-.3,0-.6,0-1,0h0Z"/>
      <path class="st2" d="M1614.4,1184.2c-1.5,0-2.9-1-3.4-2.5l-70.2-231.7c-.6-1.9.5-3.8,2.3-4.4,1.9-.6,3.8.5,4.4,2.3l70.2,231.7c.6,1.9-.5,3.8-2.4,4.4-.3,0-.7.2-1,.2h0Z"/>
      <path d="M1489.8,622.6c0,62.2-50.4,112.5-112.5,112.5s-112.5-50.4-112.5-112.5,50.4-112.5,112.5-112.5,112.5,50.4,112.5,112.5Z"/>
      <path class="st2" d="M1447.4,704.9c-31-9.9-57.5-56.6-58.1-58.9-4.8-19.3,3.1-75.9,3.1-75.9,0,0-72.2-18.5-93.9-9.2-12.2,5.2-24.4,32.1-25,43.1-.3,5.7-6.3,32.6-3.3,69.3,4.2,52.8,1.7,85.7,57.6,85.7l.6,33.9h121.6l-2.7-87.9h.1Z"/>
      <path d="M1328.5,788.5c-1.9,0-3.5-1.5-3.5-3.4l-.5-22.7c-51.3-1.3-53.5-31.4-56.8-76.5-.3-4-.6-8.1-.9-12.4-2.9-36.5-.8-65.4-.7-65.7,0-1.9,1.8-3.4,3.8-3.2,1.9,0,3.4,1.8,3.2,3.8,0,.3-2.2,28.7.7,64.6.3,4.3.6,8.4.9,12.4,3.3,45.1,5.1,70,53.2,70s3.5,1.5,3.5,3.4l.6,26c0,1.9-1.5,3.6-3.4,3.6h0Z"/>
      <path d="M1450.1,788.5c-1.9,0-3.5-1.5-3.5-3.4l-2.7-80.1c0-1.9,1.5-3.6,3.4-3.6,2-.2,3.6,1.5,3.6,3.4l2.7,80.1c0,1.9-1.5,3.6-3.4,3.6h0Z"/>
      <path d="M1327.8,762.4c-1.9,0-3.4-1.5-3.5-3.4,0-1.9,1.4-3.6,3.4-3.7,28.4-1.1,45.3-8.8,45.5-8.9,1.8-.8,3.9,0,4.7,1.7.8,1.8,0,3.9-1.7,4.7-.7.3-18.3,8.4-48.2,9.5h-.2Z"/>
      <path d="M1328.5,772.4s4.9,23.1,21.3,22.8c16.4-.4,29.1-44.4,29.1-44.4l-51,8.2.6,13.5h0Z"/>
      <path d="M1304.8,684.6c-2.3-.3-3.7-2-3.5-3.9l5.5-47.1c.2-1.9,2-3.4,3.9-3.1,1.9.2,3.3,2,3.1,3.9l-5.5,47.1c-.2,1.8-1.7,3.1-3.5,3.1Z"/>
      <circle class="st2" cx="1411" cy="657.5" r="29.8"/>
      <path d="M1405.5,666.4c-.7,0-1.4-.2-2-.7-1.6-1.1-2-3.3-.8-4.9l10.9-15.3c1.1-1.6,3.3-1.9,4.9-.8,1.6,1.1,1.9,3.3.8,4.9l-10.9,15.3c-.7,1-1.8,1.5-2.9,1.5Z"/>
      <path d="M1313.1,703.6c-1.5,0-2.9-1-3.4-2.5-.6-1.9.4-3.8,2.3-4.4,6.9-2.2,10-10.5,10-10.6.7-1.8,2.7-2.8,4.5-2.1s2.8,2.7,2.1,4.5c-.2.5-4.2,11.7-14.5,14.9-.4,0-.7.2-1.1.2h0Z"/>
      <path d="M1345.7,645c.4,3.9,3.9,6.8,7.8,6.4s6.8-3.9,6.4-7.8c-.4-3.9-3.9-6.8-7.8-6.4-3.9.4-6.8,3.9-6.4,7.8Z"/>
      <path d="M1290.7,645c.4,3.9,3.9,6.8,7.8,6.4s6.8-3.9,6.4-7.8c-.4-3.9-3.9-6.8-7.8-6.4-3.9.4-6.8,3.9-6.4,7.8Z"/>
      <circle class="st0" cx="1020.2" cy="544.3" r="189.4"/>
      <path class="st1" d="M1068.1,1035h-410.3c-118.6,0-214.8,96.2-214.8,214.8s96.2,214.8,214.8,214.8h133.3l71.8,110.5,71.8-110.5h133.3c118.6,0,214.8-96.2,214.8-214.8s-96.2-214.8-214.8-214.8h0Z"/>
      <path d="M862.9,1578.6c-1.2,0-2.3-.6-3-1.6l-70.8-108.9h-131.4c-120.4,0-218.3-97.9-218.3-218.3s97.9-218.3,218.3-218.3h410.3c120.4,0,218.3,97.9,218.3,218.3s-98,218.3-218.3,218.3h-131.4l-70.8,108.9c-.6,1-1.8,1.6-3,1.6h.1ZM657.8,1038.5c-116.5,0-211.3,94.8-211.3,211.3s94.8,211.3,211.3,211.3h133.3c1.2,0,2.3.6,3,1.6l68.9,105.9,68.9-105.9c.6-1,1.8-1.6,3-1.6h133.3c116.5,0,211.3-94.8,211.3-211.3s-94.8-211.3-211.3-211.3h-410.4Z"/>
      <path class="st2" d="M908.1,1249.8c0,24.9-20.2,45.1-45.1,45.1s-45.1-20.2-45.1-45.1,20.2-45.1,45.1-45.1,45.1,20.2,45.1,45.1Z"/>
      <path class="st2" d="M695.8,1249.8c0,24.9-20.2,45.1-45.1,45.1s-45.1-20.2-45.1-45.1,20.2-45.1,45.1-45.1,45.1,20.2,45.1,45.1Z"/>
      <path class="st2" d="M1120.3,1249.8c0,24.9-20.2,45.1-45.1,45.1s-45.1-20.2-45.1-45.1,20.2-45.1,45.1-45.1,45.1,20.2,45.1,45.1Z"/>
      <path class="st2" d="M1070.1,948.1c58.3-7.3,98.5-62.1,88-119.9-2.8-15.6-5.3-28.6-7-35.4-9.3-38.5-32-66.2-82.1-61.5,0,0-4.9-30.2-12.2-47.8-20.6-49.5-57.5-49.5-57.9-15.7,0,0-17.7-37.2-41.6-31.9-23.9,5.2-19.8,38.8-19.8,38.8,0,0-21.1-44.4-50.5-32-31.1,13.1.6,70,.6,70,0,0-34.6-58.1-64.2-34.7-19.1,15.2,3.4,52.1,33.7,103.4,17,28.8,48.8,35.9,92.2,32.6l6.7,46.9c7.9,55.3,58.6,94.1,114.1,87.1h0Z"/>
      <path d="M1057.5,952.4c-51.8,0-97.5-38.5-104.9-91l-6.2-43.7c-47.8,3.1-76.3-7.7-92.2-34.6l-2-3.3c-30.2-51-52-87.9-30.9-104.6,6.8-5.4,14.4-7.3,22.5-5.8,11.2,2.1,21.8,10.5,30,19.3-3.4-11.2-5.5-24.1-2-34.3,2.4-7,7.1-12,14-14.9,22.1-9.4,39.5,9.3,48.4,22.4,1.5-12.3,7.2-26.1,22.5-29.5,18.4-4,33,13.3,40.3,24.7,2.5-8.8,8.2-14.6,16.2-16.1,13.8-2.7,33.7,9,47.1,41.1,6.1,14.6,10.4,37.1,11.9,45.4,43.8-3,71.5,18.7,82.6,64.4,1.5,6.3,3.9,18.3,7,35.6,5.3,28.9-1.4,57.9-18.8,81.6-17.4,23.7-43,38.8-72.2,42.4-4.4.6-8.7.8-13.1.8h-.2ZM949.4,810.5c1.7,0,3.2,1.3,3.5,3l6.7,46.9c7.6,53.1,57,90.8,110.2,84.1,27.2-3.4,51.1-17.5,67.4-39.6,16.2-22.1,22.5-49.2,17.6-76.2-3.1-17.2-5.5-29.1-6.9-35.2-10.5-43.5-36.1-62.8-78.3-58.8-1.8.2-3.5-1.1-3.8-2.9,0-.3-4.9-30-12-47-11.8-28.3-28.6-39-39.2-36.9-7.3,1.4-11.8,8.9-11.9,19.9,0,1.6-1.2,3-2.8,3.4-1.6.3-3.2-.4-3.9-1.9-.2-.3-16.8-34.6-37.7-30-20.4,4.5-17.1,34.7-17,35,.2,1.7-.9,3.3-2.5,3.8-1.7.5-3.4-.3-4.2-1.9-.2-.4-20-41.2-45.9-30.2-5,2.1-8.3,5.6-10.1,10.7-6.7,19.6,12.2,54,12.4,54.3.9,1.7.3,3.8-1.3,4.8-1.7,1-3.8.4-4.8-1.2-.2-.3-20.7-34.2-42.2-38.2-6.1-1.1-11.6.3-16.8,4.4-16.3,12.9,5.3,49.4,32.6,95.5l2,3.3c14.8,24.9,42.2,34.5,88.9,30.9h.3-.3Z"/>
      <path d="M917.2,788.5c-1.4,0-2.7-.8-3.3-2.2l-29.5-72.3c-.7-1.8,0-3.9,1.9-4.6,1.8-.7,3.9,0,4.6,1.9l29.6,72.3c.7,1.8,0,3.9-1.9,4.6-.4.2-.9.3-1.3.3h0Z"/>
      <path d="M975.6,781c-1.4,0-2.8-.9-3.3-2.3l-38-102.8c-.7-1.8.3-3.9,2.1-4.5,1.8-.7,3.9.3,4.5,2.1l38,102.8c.7,1.8-.3,3.9-2.1,4.5-.4,0-.8.2-1.2.2Z"/>
      <path d="M1041.5,781c-1.4,0-2.7-.9-3.3-2.3l-42.5-109.7c-.7-1.8.2-3.9,2-4.6,1.8-.7,3.9.2,4.6,2l42.5,109.7c.7,1.8-.2,3.9-2,4.6-.4.2-.8.2-1.3.2h0Z"/>
      <path d="M1041.5,817.6h-92.1c-1.9,0-3.5-1.6-3.5-3.5s1.6-3.5,3.5-3.5h92.1c1.9,0,3.5,1.6,3.5,3.5s-1.6,3.5-3.5,3.5Z"/>
      <path d="M1392.4,570.1s-80.8,40.7-93.9,27c-9.3-9.8,6.3-27,6.3-27,0,0-39.6,21.4-52.6,6.8-12.2-13.8,5.7-37.2,52.5-56,0,0-22.8-9.4-7.1-21.7,15.7-12.3,105,13.8,105,13.8l-10.3,57.1h0Z"/>
      <g>
        <polygon class="st2" points="1083.7 619.2 938.4 617.2 939.7 512.4 1015.4 438.7 1086.1 440.1 1083.7 619.2"/>
        <path d="M937.7,515.9c-.8-.4-1.4-1.1-1.8-2-.6-1.5-.2-3.2.9-4.3l75.7-73.7c1.2-1.1,2.9-1.4,4.4-.8s2.4,2.1,2.4,3.7l-1,74.7c0,2.2-1.8,4-4.1,3.9l-74.7-1c-.7,0-1.3-.2-1.9-.5h0ZM1011.2,448.3l-61.9,60.2,61,.8.8-61h.1Z"/>
      </g>
    </g>
  </g>
</svg>