<?xml version="1.0" encoding="UTF-8"?>
<svg id="Layer_1" xmlns="http://www.w3.org/2000/svg" version="1.1" viewBox="0 0 2000 2000">
  <!-- Generator: Adobe Illustrator 29.5.1, SVG Export Plug-In . SVG Version: 2.1.0 Build 141)  -->
  <defs>
    <style>
      .st0 {
        fill: #c5cbe4;
      }

      .st1 {
        fill: #7388e7;
      }

      .st2 {
        fill: #fff;
      }

      .st3 {
        fill: #4763e2;
      }
    </style>
  </defs>
  <g id="Layer_2">
    <g>
      <path class="st3" d="M1330.4,443c-89.6-68.8-214-104.8-325.5-80-64.7,14.4-125,48-171.6,95.1-44,44.6-61.1,112.4-122.1,140.8-50.9,23.7-109.5,12-163.5,12.9-51,.8-100.6,13.9-142.5,43.9-192.2,137.6-100,430.2,61.5,548.8,132,96.9,315.8,103.2,473.1,96.9,20.8-.8,41.5-2,62.2-3.4,72.3-5,144.7-20.5,209.4-52.3,98.8-48.5,174.1-136.1,216.5-235.4,76.6-179.5,73.2-436.1-97.7-567.4h.2Z"/>
      <path class="st3" d="M707.9,461.6c4.7,54.1-35.3,101.8-89.4,106.5-54.1,4.7-101.8-35.3-106.5-89.4s35.3-101.8,89.4-106.5c54.1-4.7,101.8,35.3,106.5,89.4h0Z"/>
      <path class="st2" d="M1255.1,1494.6h-600.9l-30.1,106.2h663.3c-17.7-90.4-32.3-106.2-32.3-106.2h0Z"/>
      <path d="M624,1604.5c-.3,0-.7,0-1,0-2-.6-3.1-2.6-2.6-4.6l30.1-106.2c.5-1.6,1.9-2.7,3.6-2.7h600.9c1,0,2,.4,2.7,1.2.6.7,15.5,17.6,33.2,108,.4,2-.9,4-2.9,4.4s-4-.9-4.4-2.9c-14.6-74.8-27.2-98-30.5-103.2h-596.2l-29.4,103.5c-.5,1.6-2,2.7-3.6,2.7h.1Z"/>
      <path d="M607.3,965.3c53.7-36.5,109.6-112.6,280.9-112.6l128.3.4c164.9.6,215.4,30.9,319.4-135.1,54.8-87.4,211.8-72.2,257,9.4,0,0,63.2,409.5-166.3,485.7-112.3,37.3-204.8-11.2-204.8-11.2l33.3,292.7h-600.9c-353.2,79.5-450.6-254.8-46.8-529.4h0Z"/>
      <path class="st2" d="M798.1,860.9c29.8,45.5,79,93.8,164.2,93.8s123.4-71.1,126.7-100c-21.6-.7-45.5-1.6-72.6-1.7,0,.8-.8-.3-.8-.3h-127.5c-34.4,0-64.1,3-90.1,8.2h0Z"/>
      <path d="M554.3,1510.2c-34.3,0-65.9-4.7-93.5-14.2-50.4-17.2-87-49.4-105.9-92.9-24.7-57-17-129.3,21.8-203.8,43-82.6,122.1-164.6,228.7-237l2.1,3.1-2.1-3.1c9.7-6.6,19.6-14.6,30.1-23.1,47.1-38.1,111.6-90.2,252.9-90.2l128.3.4c23.9,0,45.7.8,64.9,1.4,115.6,3.8,163.4,5.4,251.3-134.8,24.8-39.5,73.1-62.2,129.3-60.7,58.7,1.6,111.4,29.2,134.1,70.2.2.4.4.8.4,1.2.2,1,15.7,104.2,2.9,215.3-7.5,65.4-23.3,120.9-46.8,164.7-29.6,55.2-71.6,92.1-124.9,109.8-96,31.9-178.8,1.3-201.5-8.6l32.5,286.2c0,1.1-.2,2.1-.9,2.9-.7.8-1.7,1.2-2.8,1.2h-600.5c-35.2,7.9-68.9,11.9-100.3,11.9h0ZM609.4,968.3c-232.1,157.8-291.7,330.6-247.8,431.7,38.2,88,149.9,122.8,291.7,90.9h597.6l-32.8-288.6c-.2-1.4.5-2.7,1.6-3.5s2.6-.9,3.8-.2c.9.5,92.5,47.3,201.9,11,116.7-38.7,155-167.3,166.7-268.3,12.1-105.5-1.5-203.7-2.8-212.6-21.7-38.5-71.6-64.3-127.5-65.8-53.5-1.5-99.4,19.9-122.8,57.2-90.1,143.8-142.7,142-257.8,138.2-19.2-.6-40.9-1.4-64.7-1.4l-128.3-.4c-138.7,0-202,51.2-248.2,88.5-10.6,8.6-20.6,16.7-30.5,23.4h0Z"/>
      <rect class="st2" x="1056" y="1054.6" width="331.4" height="350.2"/>
      <path d="M1387.4,1408.5h-331.4c-2.1,0-3.7-1.7-3.7-3.7v-350.2c0-2.1,1.7-3.7,3.7-3.7h331.4c2.1,0,3.7,1.7,3.7,3.7v350.2c0,2.1-1.7,3.7-3.7,3.7ZM1059.8,1401.1h323.9v-342.7h-323.9v342.7h0Z"/>
      <rect class="st2" x="1158.8" y="897" width="331.4" height="358.1"/>
      <path d="M1490.2,1258.8h-331.4c-2.1,0-3.7-1.7-3.7-3.7v-358.1c0-2.1,1.7-3.7,3.7-3.7h331.4c2.1,0,3.7,1.7,3.7,3.7v358.1c0,2.1-1.7,3.7-3.7,3.7ZM1162.6,1251.3h323.9v-350.7h-323.9v350.7Z"/>
      <rect class="st2" x="1329.8" y="796.1" width="337.7" height="405.8"/>
      <path d="M1667.5,1205.6h-337.7c-2.1,0-3.7-1.7-3.7-3.7v-405.8c0-2.1,1.7-3.7,3.7-3.7h337.7c2.1,0,3.7,1.7,3.7,3.7v405.8c0,2.1-1.7,3.7-3.7,3.7ZM1333.5,1198.2h330.3v-398.4h-330.3v398.4Z"/>
      <polygon class="st0" points="1382.6 1191.4 1382.6 1085.3 1698.9 1085.3 1698.9 1641.1 976.4 1641.1 976.4 1191.4 1382.6 1191.4"/>
      <path d="M1698.9,1644.8h-722.6c-2.1,0-3.7-1.7-3.7-3.7v-449.7c0-2.1,1.7-3.7,3.7-3.7h402.5v-102.4c0-2.1,1.7-3.7,3.7-3.7h316.4c2.1,0,3.7,1.7,3.7,3.7v555.9c0,2.1-1.7,3.7-3.7,3.7h0ZM980.1,1637.4h715.1v-548.4h-308.9v102.4c0,2.1-1.7,3.7-3.7,3.7h-402.5v442.3h0Z"/>
      <polygon class="st2" points="943.1 1210.6 643.3 1328.7 539.9 1067.5 606 915.5 797.6 841.1 943.1 1210.6"/>
      <path d="M643.3,1332.4c-1.5,0-2.9-.9-3.5-2.3l-103.3-261.2c-.4-.9-.3-1.9,0-2.9l66.1-152c.4-.9,1.1-1.6,2.1-2l191.5-74.3c1.9-.7,4.1.2,4.8,2.1l145.5,369.5c.8,1.9-.2,4.1-2.1,4.8l-299.8,118.1c-.4.2-.9.3-1.4.3h.1ZM543.9,1067.6l101.4,256.3,292.9-115.4-142.8-362.6-186.7,72.5-64.9,149.2h0Z"/>
      <path d="M539.9,1071.2c-1,0-2-.4-2.7-1.1-1-1.1-1.3-2.7-.7-4.1l66.1-152c.6-1.4,2-2.2,3.5-2.2s2.8,1,3.4,2.4l42.9,109.1c.8,1.9-.2,4.1-2.1,4.8l-109.1,42.9c-.4.2-.9.3-1.4.3h0ZM605.9,925.2l-59,135.6,97.3-38.3-38.3-97.3h0Z"/>
      <path class="st2" d="M1668.5,830.3c-11.2-18.9-25.7-35.6-37.4-54.1-11.6-18.4-24.2-36.6-40.8-50.9-18.7-16.1-45.3-17.8-68.7-20.8-30.5-3.8-61.7-4.3-91.7,2.9-31.7,7.6-58.5,29.8-76.9,56-9.7,13.7-17.1,33.8-17.1,33.8,0,0,89.9,0,89.9,0,0,95,8,140,39.2,140.8,24.3.6,21-17.2,21-17.2,0,0,3.4,26.3,33.7,27.1,18.5.5,27-15.6,33.4-35.7,2.6,16.2,11.7,28.4,25.5,29.4,35.8,2.7,32-23.7,33.8-79.6,27.5,30.5,75.6,1,56.2-31.8h0Z"/>
      <path d="M1520.6,951.6c-19.7-.5-29.2-10.1-33.8-18.4-.3.4-.6.8-1,1.3-4.2,5-11.2,7.3-20.9,7.1-35.3-.9-42.7-52.3-42.8-140.8h-86.2c-1.2,0-2.4-.6-3.1-1.6s-.9-2.3-.4-3.4c.3-.8,7.8-20.7,17.6-34.6,21.1-30,49.2-50.4,79.1-57.5,27-6.5,57.5-7.4,93-3,2.2.3,4.4.5,6.7.8,21.7,2.6,46.2,5.5,64,20.8,15.9,13.8,28.1,30.6,41.5,51.7,5.2,8.3,11.2,16.4,16.9,24.2,7.1,9.6,14.3,19.5,20.5,30.1,10.3,17.5,3.1,34-8.6,42.6-12.5,9.2-31.8,11.2-47.3-.6,0,3.2,0,6.2-.2,9.2-.7,30-1.1,49.8-11.9,59.5-5.7,5.2-13.8,7.2-25.4,6.3-11.4-.9-20.7-8.6-25.6-20.8-6.1,14.7-15.2,27.1-32,27.1h0ZM1489.7,920.5c.4,2.3,4.4,23,30.1,23.7,13.5.3,22.1-9.2,29.7-33.1.5-1.6,2.1-2.7,3.8-2.6,1.7,0,3.1,1.4,3.4,3.1,2.5,15.4,10.9,25.5,22.1,26.3,9.5.7,15.8-.7,19.9-4.4,8.4-7.6,8.8-26.2,9.5-54.2,0-5.4.3-11.2.5-17.4,0-1.5,1-2.8,2.4-3.4,1.4-.5,3,0,4,1,13.3,14.8,32.1,13.9,43.6,5.4,8.4-6.1,15.1-18.4,6.6-32.8-6-10.2-13.2-20-20.1-29.4-5.8-7.9-11.8-16.1-17.2-24.6-13-20.5-24.8-36.9-40.1-50.1-16-13.8-38.4-16.5-60-19.1-2.3-.3-4.5-.5-6.7-.8-34.7-4.3-64.2-3.4-90.4,2.8-28.1,6.7-54.7,26.1-74.8,54.6-6.4,9.1-11.9,21.2-14.7,27.9h70.3c10.4,0,16,.4,16.7,1.1.7.7,1.1,1.6,1.1,2.6,0,99.3,9.6,136.4,35.6,137.1,7.1,0,12.3-1.4,15-4.5,3-3.4,2.3-8,2.3-8.3-.3-2.2,1.1-4,3.1-4.3s3.9,1,4.2,3v.4h0Z"/>
      <path d="M1553.1,916c-2.1,0-3.7-1.7-3.7-3.7l1-119c0-2,1.7-3.7,3.7-3.7s3.7,1.7,3.7,3.7l-1,118.9c0,2-1.7,3.7-3.7,3.7h0Z"/>
      <path d="M1486,924.5c-2,0-3.7-1.6-3.7-3.7-.6-36.8-1.9-122.6-1.5-125.4.3-2,2.2-3.4,4.3-3.1,2,.3,3.3,2.2,3.1,4.1-.3,4.1.8,76.5,1.5,124.2,0,2.1-1.6,3.7-3.7,3.8h0Z"/>
      <path d="M1612.3,865.8c-2,0-3.7-1.6-3.7-3.6l-1.5-75.5c0-2.1,1.6-3.7,3.6-3.8,2,0,3.7,1.6,3.8,3.6l1.5,75.5c0,2.1-1.6,3.7-3.6,3.8h-.1Z"/>
      <path class="st2" d="M440.2,1254.1c-1.2,0-2.5-.6-3.2-1.8-1.1-1.7-.5-4,1.2-5.1,3.9-2.4,97.3-59.8,157.7-75,2-.5,4,.7,4.5,2.7s-.7,4-2.7,4.5c-59.3,14.9-154.6,73.5-155.6,74.1-.6.4-1.3.6-1.9.6h0Z"/>
      <path class="st2" d="M655.6,1498.3c-1,0-2-.4-2.7-1.2-1.4-1.5-1.3-3.9.2-5.3.7-.6,68.2-64.8,93.1-179.1.4-2,2.4-3.3,4.4-2.8,2,.4,3.3,2.4,2.8,4.4-25.5,116.7-94.6,182.3-95.3,182.9-.7.7-1.6,1-2.5,1h0Z"/>
      <path class="st2" d="M928.7,1136.7c-8.8-24-30.7-11.1-30.7-11.1,0,0,34.6-21,19.7-40.9-14.8-19.9-45.3-7.1-45.3-7.1,12.9-6.5,20.5-22.6,6.8-40.8-13.6-18.3-35.9-6.5-56.1,2.5-20.3,9-73,45.3-73,45.3,0,0,14-81.5-21.5-81.5s-56.1,98.8-74.6,125.6c-7.4,10.7-31.3,29.1-57.3,47.2-45.1,31.6-57.2,93.2-27.1,139.3,32.6,49.8,100.4,61.2,147.4,25.1,21.3-16.3,40.1-32,47.8-41.8,22.2-28.2,124.7-61,139.9-89.8,15.2-28.8-16.7-30.1-16.7-30.1,0,0,49.4-17.9,40.5-41.9h.2Z"/>
      <path d="M654.9,1365c-5.9,0-11.8-.5-17.6-1.5-29.3-5-54.3-21.4-70.5-46.2-31.5-48.1-19.2-111.5,27.9-144.5,38.9-27.2,52.1-40.2,56.3-46.3,5.8-8.3,12.1-24.9,18.7-42.3,15.2-39.8,32.4-84.8,58.9-84.8s12.9,2.7,17.4,8.1c13.5,16,11,52.7,9,69.4,15.1-10.2,50.6-33.8,66.7-40.9l4.1-1.8c19.7-8.8,42-18.9,56.5.6,8.6,11.6,8.7,21.4,7.2,27.6-.7,2.9-1.9,5.7-3.5,8.2,10.9-1.4,25.3-.3,34.6,12.2,3.8,5.1,5.2,10.8,4,16.8-1.4,7.4-6.6,14.1-11.9,19.3,1.7.2,3.4.5,5.1,1.1,6.4,2.3,11.2,7.6,14.2,15.8,2,5.3,1.7,10.8-.8,16.1-5.5,11.8-20.8,20.9-31.4,26,4,1.6,8,4.3,10.4,8.5,3.7,6.4,2.9,14.6-2.3,24.3-8.6,16.2-40.3,32.2-73.9,49.2-27.7,14-56.4,28.5-66.4,41.1-7,8.8-23.3,23.1-48.4,42.4-18.6,14.3-41.4,21.9-64.6,21.9l.3-.3ZM728.7,1006.7c-21.4,0-38.4,44.4-52,80.1-7.1,18.7-13.3,34.8-19.6,43.9-6.6,9.6-26.2,25.8-58.2,48.2-43.8,30.6-55.3,89.6-26.1,134.2,15.2,23.2,38.5,38.5,65.7,43.1,27.3,4.6,54.4-2.1,76.4-19,24.7-18.9,40.5-32.8,47.1-41.1,11-14,39.1-28.1,68.9-43.2,31.1-15.7,63.2-31.9,70.7-46.1,3.9-7.4,4.7-13.1,2.4-17.2-3.9-6.8-15.9-7.5-16-7.5-1.8,0-3.2-1.4-3.5-3.1-.3-1.8.7-3.5,2.4-4.1.3,0,30.6-11.3,37.7-26.7,1.7-3.6,1.8-7,.6-10.4-2.2-6-5.5-9.8-9.7-11.3-7.3-2.6-15.6,2.1-15.6,2.1-1.8,1-4,.4-5.1-1.3-1-1.7-.5-4,1.3-5.1.2,0,18.9-11.7,21.4-24.5.8-3.9,0-7.5-2.7-10.9-12.9-17.3-40.6-6-40.9-5.9-1.8.8-4,0-4.8-1.9-.8-1.8,0-4,1.7-4.9,5.9-3,10.1-8,11.5-13.9,1.6-6.7-.5-14.1-6-21.4-10.2-13.6-25.4-8.1-47.5,1.8l-4.2,1.9c-19.7,8.7-71.9,44.6-72.4,45-1.2.8-2.9.9-4.1,0-1.3-.8-1.9-2.3-1.7-3.8,0-.5,9-53.8-6.1-71.8-3.1-3.6-6.9-5.4-11.7-5.4v.2Z"/>
      <path d="M755,1140.4c-1.4,0-2.7-.7-3.3-2-.9-1.8-.2-4.1,1.6-5l124.4-62.6c1.8-.9,4.1-.2,5,1.6.9,1.8.2,4.1-1.6,5l-124.4,62.6c-.5.3-1.1.4-1.7.4Z"/>
      <path d="M708.4,1113c-1.3,0-2.5-.7-3.2-1.8-1-1.8-.4-4,1.3-5.1l41.5-24.4c1.8-1,4-.4,5.1,1.3,1,1.8.4,4-1.3,5.1l-41.5,24.4c-.6.3-1.2.5-1.9.5h0Z"/>
      <path d="M785.6,1182.3c-1.4,0-2.7-.8-3.4-2.1-.9-1.9,0-4.1,1.8-4.9l128.4-60.5c1.9-.9,4.1,0,4.9,1.8.9,1.9,0,4.1-1.8,4.9l-128.4,60.5c-.5.2-1.1.4-1.6.4h0Z"/>
      <path d="M809.5,1226.2c-1.3,0-2.6-.7-3.2-1.9-1-1.8-.4-4.1,1.4-5.1l78.7-43.9c1.8-1,4.1-.4,5.1,1.4s.4,4.1-1.4,5.1l-78.7,43.9c-.6.3-1.2.5-1.8.5h0Z"/>
      <circle cx="957.6" cy="695.5" r="118.7"/>
      <path class="st2" d="M881.2,781.9c32.7-10.5,38.9-31.5,45.8-59.4,0,0,14-47.2,12.2-66.6-.6-6,123.8-8.8,124.4,2.8.3,6,7.5,51.1,4.4,89.8-4.5,55.6-1.8,90.4-60.8,90.4l-.7,46.4-128.3-.4,2.9-103h0Z"/>
      <path d="M1006.6,873.7c-2.1,0-3.8-1.7-3.7-3.8l.7-31.1c0-2,1.7-3.6,3.7-3.6,50.8,0,52.7-26.2,56.1-73.8.3-4.2.6-8.6,1-13.1,2.5-31-1.8-66.7-3.6-81.9-.4-3.7-.7-6.2-.8-7.4,0-2,1.5-3.8,3.5-3.9,2.1,0,3.8,1.5,3.9,3.5,0,1,.4,3.6.8,6.9,1.9,15.4,6.2,51.6,3.6,83.3-.4,4.5-.7,8.9-1,13.1-3.4,47.6-5.7,79.3-59.9,80.7l-.6,27.5c0,2-1.7,3.6-3.7,3.6h0Z"/>
      <path d="M878.3,868.8c-2.2,0-3.8-1.8-3.7-3.8l2.9-83.2c0-2.1,1.8-3.7,3.8-3.6,2.1,0,3.7,1.8,3.6,3.8l-2.9,83.2c0,2-1.7,3.6-3.7,3.6h0Z"/>
      <path d="M1007.2,842.6c-31.7-1.2-50.2-9.7-51-10-1.9-.9-2.7-3.1-1.8-4.9.9-1.9,3.1-2.7,4.9-1.8.2,0,18,8.2,48,9.3,2,0,3.6,1.8,3.6,3.9s-1.7,3.6-3.7,3.6h0Z"/>
      <path d="M1006.9,865.1s-5.5,12.4-22.7,12c-17.3-.4-28.5-48.6-28.5-48.6l51.6,10.4-.4,26.2h0Z"/>
      <path class="st2" d="M888.2,732c0,17.4,14.1,31.4,31.4,31.4s31.4-14.1,31.4-31.4-14.1-31.4-31.4-31.4-31.4,14.1-31.4,31.4Z"/>
      <path d="M925.4,741.3c-1.2,0-2.3-.5-3-1.6l-11.5-16.1c-1.2-1.7-.8-4,.9-5.2s4-.8,5.2.9l11.5,16.1c1.2,1.7.8,4-.9,5.2-.7.5-1.4.7-2.2.7h0Z"/>
      <path d="M1022.8,780.5c-.4,0-.7,0-1.1-.2-10.8-3.4-15.1-15.2-15.3-15.7-.7-1.9.3-4.1,2.3-4.7,1.9-.7,4.1.3,4.7,2.3,0,.2,3.3,8.9,10.5,11.1,2,.6,3,2.7,2.4,4.7-.5,1.6-2,2.6-3.5,2.6h0Z"/>
      <path d="M994,718.8c-.4,4.1-4.1,7.1-8.2,6.7-4.1-.4-7.1-4.1-6.7-8.2.4-4.1,4.1-7.1,8.2-6.7,4.1.4,7.1,4.1,6.7,8.2Z"/>
      <path d="M1052.1,718.8c-.4,4.1-4.1,7.1-8.2,6.7-4.1-.4-7.1-4.1-6.7-8.2.4-4.1,4.1-7.1,8.2-6.7,4.1.4,7.1,4.1,6.7,8.2Z"/>
      <path class="st1" d="M982.7,689.4c-2,0-3.7-1.7-3.7-3.7s1.7-3.7,3.7-3.7l83.4-.2c2.1,0,3.7,1.7,3.7,3.7s-1.7,3.7-3.7,3.7l-83.4.2h0Z"/>
      <path class="st1" d="M980.9,761.3h-2c-21.8-1.1-38.7-19.8-37.6-41.6,1.1-21.8,19.8-38.7,41.6-37.6,21.8,1.1,38.7,19.8,37.6,41.6-1.1,21.2-18.6,37.7-39.6,37.7h0ZM948.7,720c-.9,17.7,12.8,32.9,30.6,33.8,17.8.9,32.9-12.8,33.8-30.6.4-8.6-2.5-16.8-8.3-23.2s-13.7-10.1-22.3-10.6c-17.7-.8-32.9,12.8-33.8,30.6h0Z"/>
      <path class="st1" d="M1064.3,761h-2c-21.8-1.1-38.7-19.8-37.6-41.6,1.1-21.8,19.8-38.7,41.6-37.6,10.6.5,20.3,5.2,27.4,13,7.1,7.9,10.7,18,10.2,28.6-1.1,21.2-18.6,37.7-39.6,37.7h0ZM1032.1,719.8c-.9,17.7,12.8,32.9,30.6,33.8,17.8.8,32.9-12.8,33.8-30.6.4-8.6-2.5-16.8-8.3-23.2s-13.7-10.1-22.3-10.6c-17.8-.9-32.9,12.8-33.8,30.6h0Z"/>
      <path d="M1031.5,760.5c-1.9,0-3.5-1.4-3.7-3.3l-5.8-49.6c-.2-2,1.2-3.9,3.3-4.1,2-.3,3.9,1.2,4.1,3.3l5.8,49.6c.2,2-1.2,3.9-3.3,4.1h-.4Z"/>
      <path d="M940.6,683.7c-19.2,0-34.9-15.7-34.9-34.9s15.7-34.9,34.9-34.9,34.9,15.7,34.9,34.9-15.7,34.9-34.9,34.9Z"/>
      <path d="M1006,671.3c-21.2,0-38.6-17.4-38.6-38.6s17.4-38.6,38.6-38.6,38.6,17.4,38.6,38.6-17.4,38.6-38.6,38.6Z"/>
      <path d="M947.9,630.9c-21.2,0-38.6-17.4-38.6-38.6s17.4-38.6,38.6-38.6,38.6,17.4,38.6,38.6-17.4,38.6-38.6,38.6Z"/>
      <path d="M1056.1,671.3c-24.2,0-44.1-19.8-44.1-44.1s19.8-44.1,44.1-44.1,44.1,19.8,44.1,44.1-19.8,44.1-44.1,44.1Z"/>
      <path d="M1007.2,636.6c-23.4,0-42.5-19.1-42.5-42.5s19.1-42.5,42.5-42.5,42.5,19.1,42.5,42.5-19.1,42.5-42.5,42.5h0Z"/>
      <path d="M1009.9,622.6c-25.5,0-46.2-20.7-46.2-46.2s20.7-46.2,46.2-46.2,46.2,20.7,46.2,46.2-20.7,46.2-46.2,46.2h0ZM1009.9,537.6c-21.4,0-38.8,17.4-38.8,38.8s17.4,38.8,38.8,38.8,38.8-17.4,38.8-38.8-17.4-38.8-38.8-38.8h0Z"/>
    </g>
  </g>
</svg>