<?xml version="1.0" encoding="UTF-8"?>
<svg id="Layer_1" xmlns="http://www.w3.org/2000/svg" version="1.1" viewBox="0 0 2000 2000">
  <!-- Generator: Adobe Illustrator 29.5.1, SVG Export Plug-In . SVG Version: 2.1.0 Build 141)  -->
  <defs>
    <style>
      .st0 {
        fill: #c5cbe4;
      }

      .st1 {
        fill: #7388e7;
      }

      .st2 {
        fill: #fff;
      }

      .st3 {
        fill: #4763e2;
      }
    </style>
  </defs>
  <path class="st3" d="M1154.8,484.7c0,58.3-47.3,105.6-105.6,105.6s-105.6-47.3-105.6-105.6,47.3-105.6,105.6-105.6,105.6,47.3,105.6,105.6Z"/>
  <path class="st3" d="M291.7,1149c80.6,224.3,289.5,389.6,522.6,430.4,166.4,29.2,355.6-10.7,501.4-94.3,130.3-74.6,243.2-198.5,286.8-344.2,42.6-142.5-22.8-317.5-130.3-414.3-86.5-77.8-187.8-94.7-296.5-57.3-43.6,15-82.5,36.6-130.4,26.3-93.1-20-145.8-131.7-224.3-179.3-142.8-86.5-339-49.6-453,68.3-132.2,136.7-138.1,381.8-80,553.8,1.2,3.6,2.4,7.1,3.7,10.6Z"/>
  <path class="st1" d="M1253.8,789l-1.3,124.3h270.6l45.3,46.7c253,5.3,177.4-147.5,104.1-251.9-67.8-96.6-86.4-153.5-247.9-149.1l-72.9-3c-78.8-2.3-103.5,12.8-139.2,49.2-20.3,20.7-57.2,25.2-57.3-18.4-.1-40,39.4-80,39.4-80l-75.3-70.2s-14.6,9.3-103.6,90.2c-158.2,143.7-69.1,325.7,238,262.3Z"/>
  <path d="M1580.8,964.2c-4.1,0-8.2,0-12.5-.1-1.1,0-2-.5-2.8-1.2l-44.2-45.5h-268.9c-1.1,0-2.1-.4-2.8-1.2-.7-.8-1.2-1.8-1.2-2.8l1.2-119.4c-76.8,15.3-145.5,16-198.8,1.9-50-13.2-85.9-38.8-103.8-73.9-29.7-58.3-4.4-134.2,65.9-198.1,88.3-80.1,103.5-90.2,104.1-90.6,1.5-1,3.5-.8,4.9.4l75.3,70.2c.8.7,1.2,1.8,1.3,2.8,0,1.1-.4,2.1-1.1,2.9-.4.4-38.4,39.3-38.3,77.2,0,15,4.6,24.7,13.3,28.2,10.3,4.2,26-1.1,37.2-12.6,35.3-36,60.9-52.8,142.1-50.4l72.8,3c146.1-3.9,178,43.1,230.7,121,6.5,9.5,13.1,19.4,20.4,29.8,64.9,92.5,85.2,158.5,62.1,201.9-20,37.4-72.8,56.4-157.1,56.4ZM1570.2,956.1c87.4,1.6,141.4-15.9,160.7-52.1,21.6-40.5,1.5-103.8-61.6-193.6-7.3-10.5-14-20.3-20.5-29.9-53-78.2-82.2-121.3-224.1-117.5-.3,0-73.1-3-73.1-3-78.5-2.3-101.8,12.9-136.2,48-13.6,13.9-32.5,19.8-45.9,14.4-8.3-3.4-18.1-12.3-18.2-35.6-.1-35.2,28.5-69.6,37.8-79.8l-69.9-65.2c-6.9,5.3-30.6,24.4-100.6,88-67.6,61.3-92.2,133.6-64.2,188.6,16.8,33.1,51,57.2,98.7,69.8,53.2,14.1,122.4,13,200-3,1.2-.2,2.4,0,3.3.8.9.8,1.5,1.9,1.5,3.1l-1.3,120.3h266.6c1.1,0,2.1.4,2.9,1.2l44.2,45.6Z"/>
  <polygon class="st2" points="1311.1 557.7 1390.9 558.8 1487.7 562.4 1487.7 569.3 1479.9 580.2 1454.9 597.3 1428.6 609.3 1397.3 615.3 1368 615.3 1348.8 609.3 1334 599.8 1318 587.8 1311.1 571.5 1311.1 557.7"/>
  <path d="M1615.5,1641.7H464.9c-2.2,0-4-1.8-4-4s1.8-4,4-4h1150.7c2.2,0,4,1.8,4,4s-1.8,4-4,4Z"/>
  <rect class="st0" x="834.5" y="1410.3" width="411.4" height="227.5"/>
  <path d="M1245.9,1641.7h-411.4c-2.2,0-4-1.8-4-4v-227.5c0-2.2,1.8-4,4-4h411.4c2.2,0,4,1.8,4,4v227.5c0,2.2-1.8,4-4,4ZM838.5,1633.7h403.5v-219.5h-403.5v219.5Z"/>
  <path class="st2" d="M1565,1635.3s0-69.2-21.6-69.2l-3.1-34.7h-153.9c-.5,0-3.5,34.7-3.5,34.7-18.9,0-21.6,69.2-21.6,69.2h203.8Z"/>
  <path d="M1543.4,1566.1h-160.6c-18.9,0-21.6,69.2-21.6,69.2h203.8s0-69.2-21.6-69.2Z"/>
  <path d="M1565,1639.3h-203.8c-1.1,0-2.1-.4-2.9-1.2-.8-.8-1.2-1.8-1.1-2.9.5-11.5,3.6-65.9,21.9-72.4l2.8-31.7c.2-2.1,1.9-3.6,4-3.6h154.4c2.1,0,3.8,1.6,4,3.6l2.8,31.5c20.8,5.8,21.9,61.1,21.9,72.7s-1.8,4-4,4ZM1365.4,1631.3h195.6c-.5-26.7-6-61.2-17.6-61.2s-3.8-1.6-4-3.6l-2.7-31h-147.1l-2.7,31c-.2,2.1-1.9,3.6-4,3.6-8.9,0-15.8,31-17.4,61.2Z"/>
  <path class="st2" d="M1188.6,1293.3l1.8,113.1-243.7,3.8c-5,0-8.3-2.8-8.4-7-1.3-63.7,89.9-63,89.9-63l6.1-44.5,154.3-2.3Z"/>
  <path d="M946.4,1414.2c-7,0-11.9-4.5-12.1-10.9-.3-16.1,4.9-29.8,15.5-40.5,22.6-22.9,62.7-26.1,74.9-26.5l5.6-41.1c.3-2,1.9-3.4,3.9-3.4l154.3-2.3c2.2,0,4,1.7,4,3.9l1.8,113.1c0,1.1-.4,2.1-1.1,2.8-.7.8-1.7,1.2-2.8,1.2l-243.7,3.8c-.1,0-.2,0-.3,0ZM1028.1,1344.2c-1.7,0-49,.3-72.6,24.2-9.1,9.2-13.5,20.9-13.2,34.8,0,2.8,2.8,3.1,4.3,3.1l239.7-3.8-1.7-105.1-146.9,2.2-5.6,41.1c-.3,2-2,3.5-4,3.5,0,0,0,0,0,0Z"/>
  <path d="M1190.3,1406.4l-243.7,3.8c-5,0-8.3-2.8-8.4-7-1.3-63.7,89.9-63,89.9-63l.8-5.3h160.3l1.1,71.6Z"/>
  <path d="M1028.2,992.8c.6-14.5,8.4-79.2,91.7-79.2s118.2-.2,118.2-.2h271.6c46.8,20.9,39.6,121.1,39.5,172.9-.3,114.2,10.2,456.4,10.2,456.4h-199.5l-16.3-407.6-14.8-1.1-115.8-4-13.5,184.1h-200.8l29.5-321.3Z"/>
  <path d="M1559.4,1546.7h-199.5c-2.1,0-3.9-1.7-4-3.8l-16.1-404-11.3-.9-111.8-3.9-13.3,180.3c-.2,2.1-1.9,3.7-4,3.7h-200.8c-1.1,0-2.2-.5-2.9-1.3-.8-.8-1.1-1.9-1-3.1l29.5-321.2c.6-14.1,8-82.9,95.7-82.9s118.2-.2,118.2-.2h271.6c.6,0,1.1.1,1.6.3,44.1,19.8,42.9,103.2,42,158.4,0,6.5-.2,12.6-.2,18.2-.2,112.8,10.1,452.9,10.2,456.3,0,1.1-.4,2.1-1.1,2.9-.8.8-1.8,1.2-2.9,1.2ZM1363.8,1538.7h191.5c-1.2-39.2-10.4-346.3-10.1-452.4,0-5.6.1-11.7.2-18.3.8-52.8,2-132.4-36.5-150.7h-270.7s-94.3.2-118.2.2c-80.7,0-87.3,62.8-87.8,75.4,0,.2-29.1,317.1-29.1,317.1h192.7l13.3-180.4c.2-2.1,2-3.7,4.1-3.7l115.8,4,15,1.1c2,.2,3.6,1.8,3.7,3.8l16.1,403.7Z"/>
  <path d="M1253.8,793c-2.3,0-4-1.9-4-4.1l2.8-148.8c0-2.2,1.9-4,4.1-3.9,2.2,0,4,1.9,3.9,4.1l-2.8,148.8c0,2.2-1.8,3.9-4,3.9Z"/>
  <path class="st2" d="M1343.6,1139.1c-2.2,0-3.9-1.7-4-3.9l-3.3-150.5c0-2.2,1.7-4,3.9-4.1,2.3-.1,4,1.7,4.1,3.9l3.3,150.5c0,2.2-1.7,4-3.9,4.1,0,0,0,0,0,0Z"/>
  <path d="M1546.9,839.4c-.9,0-1.9-.3-2.6-1-1.7-1.5-1.8-4-.4-5.6,59.9-68.1,156.2-18.4,157.1-17.9,1.9,1,2.7,3.4,1.7,5.4-1,1.9-3.4,2.7-5.4,1.7-.9-.5-91.7-47.2-147.4,16.1-.8.9-1.9,1.4-3,1.4Z"/>
  <path d="M1541.8,828c-2.2,0-4-1.8-4-4v-183.8c0-2.2,1.8-4,4-4s4,1.8,4,4v183.8c0,2.2-1.8,4-4,4Z"/>
  <path class="st2" d="M1213.1,1134c-1.5,0-3-.9-3.6-2.4l-29.5-66.6c-.9-2,0-4.4,2-5.3,2-.9,4.4,0,5.3,2l29.5,66.6c.9,2,0,4.4-2,5.3-.5.2-1.1.3-1.6.3Z"/>
  <path d="M1311.9,467.2c7.4,41.8,47.2,69.6,89,62.3,41.8-7.4,69.6-47.2,62.3-89-7.4-41.8-47.2-69.6-89-62.3-41.8,7.4-69.6,47.2-62.3,89Z"/>
  <path class="st2" d="M1443.9,567.6l-11.2-57c-39.1-.2-35.3-33.6-35.3-33.6-7.5-4.1-9.5-17.2-9.9-30.2-.6-19.7-22.7-31.4-38.7-20-.7.5-1.4,1.1-2.2,1.6-14,11.5-30.9,10.9-30.9,10.9-.6,5.9-.8,6.8-1.4,14-4.5,54.8-15.3,99,38.5,93.1l5,28.5,86.1-7.4Z"/>
  <path d="M1357.8,578.9c-1.9,0-3.6-1.4-3.9-3.3l-4.3-24.9c-14.8,1-25.5-1.9-32.6-8.8-13.7-13.6-11.2-40.3-8.2-71.3.5-5.7,1.1-11.6,1.6-17.6.5-5.9.7-7.6,1-11.1l.3-3c.3-2.6,2.1-15.3,8-19.7,1.8-1.3,4.3-.9,5.6.8,1.3,1.8.9,4.3-.8,5.6-2,1.5-4.1,8.5-4.8,14.2l-.3,3c-.4,3.4-.6,5.1-1,10.9-.5,6.1-1.1,12-1.6,17.7-2.8,29-5.2,54,5.9,64.9,5.8,5.7,15.6,7.8,29.8,6.2,2.1-.2,4,1.2,4.4,3.3l5,28.5c.4,2.2-1.1,4.2-3.2,4.6-.2,0-.5,0-.7,0Z"/>
  <path d="M1327.8,473.5c0,2.5-1.9,4.6-4.4,4.7-2.5,0-4.6-1.9-4.7-4.4,0-2.5,1.9-4.6,4.4-4.7,2.5,0,4.6,1.9,4.7,4.4Z"/>
  <path class="st2" d="M1419.8,486.4c-3.8,10-15,15-25,11.2-10-3.8-15-15-11.2-25,3.8-10,15-15,25-11.2,10,3.8,15,15,11.2,25Z"/>
  <path d="M1397.2,485.5c-1.3,0-2.6-.6-3.3-1.8-1.2-1.8-.7-4.3,1.1-5.5l10.2-6.8c1.8-1.2,4.3-.7,5.5,1.1,1.2,1.8.7,4.3-1.1,5.5l-10.2,6.8c-.7.5-1.4.7-2.2.7Z"/>
  <path d="M1364.7,474.6c0,2.5-1.9,4.6-4.3,4.6-2.5,0-4.6-1.9-4.6-4.3,0-2.5,1.9-4.6,4.3-4.6,2.5,0,4.6,1.9,4.6,4.3Z"/>
  <path d="M1352.8,550.4c-2.1,0-3.8-1.6-4-3.7-.1-2.2,1.5-4.1,3.7-4.2,7.5-.5,25.4-5,25.6-5.1,2.1-.5,4.3.7,4.9,2.9.5,2.1-.7,4.3-2.9,4.8-.8.2-18.8,4.8-27.1,5.3,0,0-.2,0-.3,0Z"/>
  <path d="M1332.7,501.3c-2.5-.2-4.2-2.1-4-4.3l2.6-30.7c.2-2.2,2.1-3.8,4.3-3.6,2.2.2,3.8,2.1,3.6,4.3l-2.6,30.7c-.2,2.1-1.9,3.7-4,3.7Z"/>
  <path d="M1338.2,511.3c-2,0-3.7-1.5-4-3.5-.3-2.2,1.3-4.2,3.5-4.4,3.2-.4,5.3-4.4,5.3-4.4,1-2,3.4-2.8,5.3-1.8,2,1,2.8,3.3,1.8,5.3-.2.3-3.9,8-11.5,8.9-.2,0-.3,0-.5,0Z"/>
  <path class="st2" d="M1112.8,505.8c18,23.3,51.9,26.5,73.9,7,3-2.6,5.3-4.5,6.5-5.2,10.1-5.8,17.5-7.6,28.4-6.8,10.5.8,19.2-3.5,29-6.2,12.7-3.4,19.5-1,28.5,8.9,2.3,2.5,3.6,5.6,6.6,7.6,11.8,7.9,27.1-.9,30.2-13.8,4.1-17.2-8.7-30.2-21.8-39.6,33.7-1.9,60.9-1.7,62.4-16.7,1.5-14.6-14.6-14.6-14.6-14.6,5.1-5,16.1-15.7,12.6-25.2-7-19-15.8-13.7-15.8-13.7,10.9-11.5-6.6-34.4-46.1-18.9,0,0-1.5-12.3-29.2-2.8-27.2,9.3-75.9,37-92.6,44.1-7.3,3.1-23.3,10.8-40.1,19-28.9,14.2-37.6,51.3-17.9,76.8h0Z"/>
  <path d="M1153.2,529.6c-1.8,0-3.5,0-5.3-.3-15.3-1.4-28.9-8.9-38.2-21.1-10.1-13.1-13.8-29.8-10-46,3.8-16.1,14.4-29.6,29.3-36.8,20.4-10,33.9-16.4,40.3-19.1,5.9-2.5,15.9-7.7,27.6-13.7,21.2-10.9,47.6-24.5,65.3-30.5,13.4-4.6,23.2-5,29.2-1.2,1.4.9,2.4,1.9,3.2,2.9,26-9.1,42.2-2.1,48.4,7,2.7,4.1,3.5,8.7,2.4,12.9,5.2,1.9,9.5,7.3,12.8,16.3,3.3,9-2.8,18-8.3,24.1,2.4.9,4.8,2.3,6.9,4.5,2.1,2.3,4.4,6.4,3.7,12.9-1.7,16.7-25.4,18.2-55.6,19.7,8.7,7.7,18.8,20.5,14.9,37.1-1.9,8.1-8,15.1-15.9,18.2-6.9,2.7-14.4,2-20.4-2-2.5-1.7-4-3.8-5.4-5.7-.7-.9-1.3-1.8-1.9-2.5-8.2-9-13.5-10.7-24.5-7.7-2.5.7-5.1,1.5-7.5,2.3-7.1,2.3-14.4,4.6-22.9,4-10.1-.8-16.7.8-26.1,6.2-.4.2-1.8,1.2-5.9,4.8-10.1,9-22.8,13.8-36.2,13.8ZM1281,366.3c-3.5,0-8.7.8-16.2,3.4-17.2,5.9-43.2,19.3-64.2,30.1-11.8,6.1-22,11.3-28.1,13.9-6.3,2.7-19.7,9.1-40,19-12.7,6.2-21.9,17.7-25.1,31.5-3.2,13.8,0,28.1,8.6,39.3,8,10.4,19.6,16.8,32.7,18,13,1.2,25.6-2.9,35.4-11.5,4.5-4,6.3-5.2,7.1-5.7,10.7-6.2,19-8.1,30.7-7.3,6.9.5,13.2-1.5,19.8-3.7,2.5-.8,5.2-1.7,7.9-2.4,13.8-3.7,22.3-1.1,32.5,10,1,1.1,1.8,2.2,2.6,3.3,1.1,1.5,2,2.8,3.3,3.7,3.9,2.6,8.5,3,13,1.2,5.4-2.1,9.7-7.1,11.1-12.6,2.9-12.2-3.5-23.4-20.3-35.4-1.4-1-2-2.7-1.5-4.4.5-1.6,1.9-2.8,3.6-2.9,3.2-.2,6.3-.3,9.3-.5,25.9-1.3,48.3-2.5,49.4-12.6.3-2.9-.3-5.1-1.7-6.7-2.5-2.8-7.3-3.4-9-3.4-1.6,0-3.1-1-3.7-2.5-.6-1.5-.2-3.2.9-4.3,3.9-3.8,14.3-13.8,11.6-21-3.1-8.5-6.3-10.8-7.8-11.5-1.3-.5-2.2-.1-2.3,0-1.7,1-3.9.6-5.1-1-1.3-1.6-1.1-3.8.3-5.3,2.6-2.7,2.8-6.3.6-9.7-3.8-5.7-17-12.6-42.3-2.7-1.1.5-2.4.3-3.5-.3-1.1-.6-1.8-1.7-1.9-2.9,0,0-.3-1-1.8-1.7-1-.6-2.9-1.2-5.9-1.2Z"/>
  <path d="M1294.1,461.8c-2,0-3.8-1.5-4-3.6,0-.3-2.1-18.3-16.6-28.7-10.8-7.8-25.9-9.7-44.7-5.5-2.1.5-4.3-.9-4.7-3-.5-2.2.9-4.3,3-4.8,21.2-4.7,38.5-2.3,51.2,6.9,17.4,12.6,19.7,33.5,19.8,34.3.2,2.2-1.4,4.1-3.6,4.4-.1,0-.3,0-.4,0Z"/>
  <path d="M1270.5,426.9c-1.4,0-2.8-.8-3.5-2.2-1-2-.2-4.4,1.7-5.4l68.2-35.4c2-1,4.4-.3,5.4,1.7,1,2,.3,4.4-1.7,5.4l-68.2,35.4c-.6.3-1.2.4-1.8.4Z"/>
  <path d="M1294.2,450.7c-1.6,0-3-.9-3.7-2.4-.9-2,0-4.4,2.1-5.2l47.8-20.2c2-.9,4.4,0,5.2,2.1.9,2,0,4.4-2.1,5.2l-47.8,20.2c-.5.2-1,.3-1.6.3Z"/>
  <path d="M1265.8,406.9c-1.4,0-2.7-.7-3.4-2-1.1-1.9-.5-4.3,1.4-5.5.1,0,3-1.8,13.5-7.1,6.9-3.5,11.5-7.9,12.9-12.5,1-3,.6-6.1-1.1-9.3-1-2-.3-4.4,1.7-5.4,1.9-1,4.4-.3,5.4,1.7,2.7,5.1,3.2,10.4,1.6,15.5-2.1,6.7-8,12.6-16.9,17.2-10.2,5.2-13.1,6.9-13.1,6.9-.6.4-1.3.5-2,.5Z"/>
  <path class="st2" d="M1639.5,871c-13.1-32.3-50-47.9-82.3-34.8l-4.2,1.7s-5.8-29.7-27.9-37.2c-22.2-7.5-52.3-11.3-70.5-10.8-18.2.5-53-.8-52.2,21.2.8,22.2,73.4,17.4,73.4,17.4,0,0-32.8,4.3-45.8,5.3-21.4,1.6-34.4,7.7-32.6,24.1,2,18.8,48.2,13.7,75.2,9.2-24.6,5.6-63.7,17.5-60.3,36.1,2.9,15.4,25.2,13.2,43.9,8.5-7.8,4.5-13.6,11.2-10.6,20.7,7.2,23,74.4-3.5,74.4-3.5,0,0,1,29,32.9,31.3,9.2.7,22.8-.6,37.4-2.8,40.5-5.9,64.5-48.5,49.1-86.4Z"/>
  <path d="M1558.4,964.3c-2.1,0-4,0-5.7-.2-26.3-1.9-33.7-20.5-35.8-29.9-13.4,4.9-49.8,16.8-66.6,8.7-4.3-2.1-7.2-5.3-8.5-9.5-1.3-4.3-1.7-9.7,1.5-15.2-12.3,1.7-21.5.7-27.4-3.1-4.1-2.6-6.6-6.4-7.5-11.3-2.3-12.1,9-21.5,24.8-28.6-14.2.3-26.8-1.3-33.8-6.6-3.6-2.7-5.6-6.2-6-10.3-.7-6.8.8-12.5,4.4-17,4.9-6,13.7-9.5,27.2-11.1-8.9-1.7-16.9-4.4-21.6-8.7-3.2-2.9-4.9-6.4-5.1-10.3-.2-5.7,1.5-10.5,5.2-14.3,9.8-10.3,30.9-10.7,46.3-10.9,1.6,0,3.2,0,4.6,0,18.2-.5,48.7,3.1,71.8,11,18.7,6.4,26.7,26.4,29.4,35.6,34.3-13.8,73.5,2.7,87.5,37,7.8,19.3,6.4,40.7-3.9,58.8-10.3,18-27.9,30-48.3,33-13.4,2-24.4,3-32.6,3ZM1520.1,924.8c.8,0,1.5.2,2.2.7,1.1.7,1.8,1.9,1.8,3.2,0,1,1.4,25.5,29.2,27.5,8,.6,20.3-.3,36.5-2.7,18-2.6,33.5-13.2,42.5-29.1,9.1-15.9,10.4-34.8,3.5-51.8-12.3-30.2-46.9-44.8-77.1-32.6l-4.2,1.7c-1.1.4-2.3.4-3.4-.2-1-.6-1.8-1.6-2-2.7,0-.3-5.6-27.5-25.3-34.2-22-7.5-52-11-69.1-10.6-1.5,0-3,0-4.7,0-13.2.2-33.1.6-40.6,8.5-2.1,2.2-3.1,5-3,8.5,0,1.7.8,3.2,2.4,4.6,11.3,10.2,52,9.9,66.7,8.9,2.1-.2,4,1.4,4.2,3.6.2,2.1-1.3,4.1-3.4,4.3-1.3.2-33,4.4-46,5.3-13.7,1-22.4,3.9-26.3,8.6-2.3,2.8-3.2,6.4-2.6,11,.2,1.9,1.1,3.5,2.9,4.8,8.5,6.4,33.1,6.7,67.6.8,2.1-.4,4.2,1,4.6,3.2.4,2.1-.9,4.2-3,4.7-37.9,8.6-59.3,20.4-57.2,31.5.5,2.7,1.8,4.6,4,6.1,5.9,3.8,18.3,3.5,35-.7,1.9-.5,3.9.5,4.7,2.4.7,1.8,0,4-1.7,4.9-10.5,6.1-10,12.1-8.8,16,.6,2.1,2,3.6,4.3,4.7,14,6.7,51.6-5.4,64.8-10.7.5-.2,1-.3,1.5-.3Z"/>
  <path d="M1559.1,895.1c-2,0-3.7-1.5-4-3.5l-6.1-53.2c-.3-2.2,1.3-4.2,3.5-4.4,2.2-.3,4.2,1.3,4.4,3.5l6.1,53.2c.3,2.2-1.3,4.2-3.5,4.4-.2,0-.3,0-.5,0Z"/>
  <path d="M1456.3,915.6c-1.7,0-3.4-1.2-3.8-2.9-.6-2.1.7-4.3,2.8-4.9l53.3-14.8c2.1-.6,4.3.7,4.9,2.8.6,2.1-.7,4.3-2.8,4.9l-53.3,14.8c-.4,0-.7.1-1.1.1Z"/>
  <path d="M1472.6,871c-1.8,0-3.4-1.2-3.9-3.1-.5-2.1.8-4.3,3-4.8l30.2-7.1c2.1-.5,4.3.8,4.8,3,.5,2.1-.8,4.3-3,4.8l-30.2,7.1c-.3,0-.6.1-.9.1Z"/>
  <path d="M1475.9,832.4c-2.1,0-3.8-1.6-4-3.7-.1-2.2,1.5-4.1,3.7-4.2l18.2-1.2c2.2-.2,4.1,1.5,4.2,3.7.1,2.2-1.5,4.1-3.7,4.2l-18.2,1.2c0,0-.2,0-.3,0Z"/>
  <path d="M1443.9,570.2c-1.9,0-3.5-1.3-3.9-3.2l-11.2-55.7c-.4-2.2,1-4.3,3.1-4.7,2.2-.4,4.3,1,4.7,3.1l11.2,55.7c.4,2.2-1,4.3-3.1,4.7-.3,0-.5,0-.8,0Z"/>
  <path d="M1358.5,568.5s16.4,7.5,22.5-8.7c4.2-11,.9-19.1.9-19.1l-29.1,5.7,5.7,22.1Z"/>
  <path d="M1385.5,619.9c-.8,0-1.6,0-2.5,0-68.2-1.4-79.8-61.4-79.9-62-.4-2.2,1.1-4.2,3.2-4.6,2.1-.4,4.2,1,4.6,3.2.4,2.2,10.7,54.2,72.2,55.5.7,0,1.5,0,2.2,0,61.8,0,106.5-51.9,106.9-52.4,1.4-1.7,3.9-1.9,5.6-.5,1.7,1.4,1.9,3.9.5,5.6-1.9,2.3-47.5,55.3-113,55.3Z"/>
</svg>