<?xml version="1.0" encoding="UTF-8"?>
<svg id="Layer_1" xmlns="http://www.w3.org/2000/svg" version="1.1" viewBox="0 0 2000 2000">
  <!-- Generator: Adobe Illustrator 29.5.1, SVG Export Plug-In . SVG Version: 2.1.0 Build 141)  -->
  <defs>
    <style>
      .st0 {
        fill: #c5cbe4;
      }

      .st1 {
        fill: #7388e7;
      }

      .st2 {
        fill: #fff;
      }

      .st3 {
        fill: #4763e2;
      }
    </style>
  </defs>
  <g id="Layer_5">
    <g>
      <path class="st3" d="M874.3,557.7c-91.4,42.4-188.6,105.8-239.2,184.9-79.8,124.9-118.4,288.6-88.3,435,22.3,108.8,100.4,202.6,198.5,252.6,98.7,50.3,215.4,59.9,304.8-13.8,49.9-41.2,83.7-100.1,125.7-148.7,27.2-31.5,60.4-62.4,100.3-76.8,43.9-15.8,93.5-8.7,138.7-20.4,183.9-47.6,188.3-291.8,119.8-431-105-213.3-385-288.7-599.1-207.6-19.7,7.5-40.3,16.1-61.2,25.8h0Z"/>
      <path class="st3" d="M1435,1329.3c12.8,55.3-21.8,110.5-77.1,123.3-55.3,12.7-110.5-21.8-123.3-77.1-12.7-55.3,21.8-110.5,77.1-123.3,55.3-12.8,110.5,21.8,123.3,77.1Z"/>
      <rect class="st2" x="426.6" y="438.4" width="630.1" height="434.6"/>
      <path d="M1056.6,876.9H426.6c-2.1,0-3.9-1.7-3.9-3.9v-434.6c0-2.1,1.7-3.9,3.9-3.9h630.1c2.1,0,3.9,1.7,3.9,3.9v434.6c0,2.1-1.7,3.9-3.9,3.9h0ZM430.4,869.2h622.3v-426.9H430.4v426.9Z"/>
      <path d="M908.9,600.7h-293.9c-2.1,0-3.9-1.7-3.9-3.9v-88.1c0-2.1,1.7-3.9,3.9-3.9h293.9c2.1,0,3.9,1.7,3.9,3.9v88.1c0,2.1-1.7,3.9-3.9,3.9ZM618.9,593h286.1v-80.4h-286.1v80.4Z"/>
      <path d="M1339.1,369.8c-25.8-13.8-57.3-17.6-86.1-9.6-23.5,6.5-44.7,20.8-60,39.7-7.5,9.2-12.9,19.3-17.7,30.1-4.7,10.6-9.8,21.1-21.8,24.8-7.2,2.2-14.8,2.1-22.3,1.6-41.9-3-79.1,6-106.2,39.9-21.6,27-32.5,64.9-18.5,98,20.7,48.6,90.5,58.3,129.2,27.1,14-11.3,26.6-25.8,43.4-33,15.9-6.9,34.9-9.3,50.9-2.4,46.6,20,101.9,15.5,135.6-25.8,18.8-23,27.9-52.9,28.7-82.6,1.3-43.1-16.2-86.9-55.4-107.9h.2Z"/>
      <path class="st2" d="M869.5,751.3c-11.8,27.8-24.6,68-49.2,66.3-16.6-1.1-75.9-133.6-75.9-133.6,0,0-24.5-63.7-47-107.3-23.1-44.7-33.2-50-46.1-45-12.9,5-19.9,18.4,10.6,82.5,0,0-35.8-16.7-38.8,25.4,0,0-30,1.3-22.4,41.4,0,0-25.7,14.6-6.6,49.3,13.2,23.9,36.5,30.8,36.5,30.8,0,0,42.7,106.5,53.1,131.4,72.1,172.9,242.4,137.7,320.7-19l-134.8-122.3h0Z"/>
      <path d="M826.8,1011.4h-4.8c-60.9-2.1-111.4-43.7-142-117.2-9.6-22.9-47-116.2-52.4-129.8-6-2.2-25.1-10.7-36.9-32-17.1-31-.7-47.9,5.7-52.9-2.2-13.9-.2-24.9,6-32.7,5.5-6.9,12.9-9.4,17.1-10.3,1.5-12.5,6.1-21.2,13.8-25.7,7.1-4.2,15.3-3.8,21.4-2.6-16.2-35.5-21.3-56.9-16.5-68.9,2-5.1,5.9-8.7,11.8-11,17.1-6.6,29,4.3,51,46.8,22.3,43.2,46.9,107,47.1,107.7,27.6,61.6,63.3,129.3,72.6,131.1,18.7,1.2,30.4-27.6,40.8-53,1.5-3.8,3.1-7.5,4.6-11,.5-1.2,1.5-2,2.7-2.3s2.5,0,3.4.9l134.8,122.3c1.3,1.2,1.6,3.1.9,4.6-42.2,84.4-111.1,136.1-180.9,136.1h-.2ZM646.8,615c-3.2,0-6.6.6-9.6,2.4-6,3.5-9.4,11.2-10.3,22.7,0,2-1.7,3.5-3.7,3.6,0,0-9.1.6-14.8,7.9-5,6.4-6.4,16.1-4,28.9.3,1.6-.5,3.3-1.9,4.1-.9.5-22.1,13.3-5.1,44,12.2,22.1,34,28.9,34.2,29,1.1.3,2,1.2,2.5,2.3.4,1.1,42.8,106.8,53.1,131.4,29.4,70.5,77.4,110.5,135.1,112.5,66.6,2.4,135.9-48.3,177.2-129.1l-128.5-116.6c-.8,1.9-1.6,3.9-2.4,5.8-11.4,27.8-24.2,59.4-48.5,57.8-4.1-.3-12.6-.8-47.4-69.3-16.8-33-31.7-66.2-31.8-66.6-.3-.8-24.7-64.2-46.9-107.1-23.6-45.7-32-46.7-41.3-43.1-3.9,1.5-6.1,3.5-7.4,6.6-4.1,10.4,2.4,33.5,20,70.6.7,1.5.4,3.2-.8,4.4s-2.9,1.5-4.4.8c0,0-6.4-2.9-13.4-2.9h.1Z"/>
      <path class="st2" d="M1242.7,724.2c21.1,21.6,47.6,54.4,69.9,43.9,15-7,23.4-72.3,24.1-97.4.7-23.1-2.4-58.7,5.9-92.2s63.9-39.7,63.9-39.7c0,0,16.4-51.5,41.7-48.7,25.3,2.8,9.8,40.6,9.8,40.6,0,0,37.7-53.5,56.2-50.4,11.4,1.9,13.8,12.1,13.9,19.6,8.1-3.8,18.4-6.3,24.6,1.2,11.5,13.9-10.9,31.5-10.9,31.5,0,0,14.4-6.9,21.9,7.6s-11.9,32.1-11.9,32.1c2.4,2.9,0,17.3-13.4,20.5-15.4,3.8-71.8,17-71.8,17,0,0,1.7,129.6.6,178.4-4.3,187.3-175.8,216.4-305.7,98.9l81.1-163h.1Z"/>
      <path d="M1321.5,961.2c-53,0-111.3-24.8-162.5-71.1-1.3-1.2-1.6-3.1-.9-4.6l81.1-163c.6-1.1,1.6-1.9,2.9-2.1,1.2-.2,2.5.2,3.4,1.1,2.7,2.7,5.4,5.6,8.2,8.6,18.9,19.9,40.3,42.5,57.3,34.5,11.1-5.2,20.9-60.6,21.9-94,.2-5.6,0-12,0-18.8-.2-21.6-.4-48.4,5.9-74.3,7.9-31.9,53.5-40.6,64.8-42.3,3.7-10.5,20-51.7,45-49,6.8.7,11.7,3.7,14.8,8.8,3.1,5.2,3.5,12,2.9,18.3,13.3-16.6,34.4-39.2,48.5-36.9,9.2,1.5,15,7.8,16.7,17.9,13.1-4.6,20.3-.3,24.2,4.4,3.2,3.9,4.6,8.3,4,13.2-.6,5.8-3.9,11.2-7.2,15.4,5.3.8,10.8,3.8,14.6,11.2,7.3,14.1-5.7,29.6-10.8,34.9.5,2.7,0,5.9-.9,8.5-1.2,3.6-5.1,12.1-16.1,14.8-13.2,3.2-56.9,13.5-68.8,16.3.2,20.1,1.5,131.3.5,175.4-1.8,79.6-33.7,136.8-89.7,160.8-18.7,8-38.9,11.9-60,11.9h.2ZM1166.4,886.3c67.8,60.2,150.8,82.2,212,55.8,53-22.8,83.2-77.5,85-153.9,1.1-48.2-.5-177-.6-178.3,0-1.8,1.2-3.4,3-3.8.6,0,56.5-13.2,71.8-16.9,5.4-1.3,8.2-4.8,9.6-7.5,1.7-3.2,1.8-6.2,1.5-7.1-1.1-1.6-.9-3.8.6-5.1.2-.2,17.1-15.7,11-27.4-5.6-10.8-15.7-6.4-16.8-5.9-1.8.8-3.9.2-5-1.5-1-1.7-.7-3.9.9-5.1,3.2-2.6,11.8-10.9,12.7-18.5.3-2.8-.5-5.2-2.3-7.4-3.8-4.6-10.5-4.7-20-.2-1.2.6-2.6.5-3.7-.2s-1.8-1.9-1.8-3.2c-.2-9.4-3.8-14.7-10.7-15.9-11.7-1.9-38.3,28.9-52.3,48.8-1.1,1.6-3.3,2.1-5,1.2-1.7-.9-2.5-3-1.7-4.9,2.3-5.6,7.2-22.1,2.3-30.3-1.7-2.9-4.7-4.6-8.9-5-18.1-2-33.3,32.5-37.6,46-.5,1.5-1.7,2.5-3.3,2.7-.5,0-53.1,6.3-60.6,36.8-6.1,24.9-5.9,51.2-5.7,72.3,0,6.9,0,13.4,0,19.1-.4,13.9-7,91.7-26.3,100.8-22,10.3-45.5-14.4-66.2-36.2-1.5-1.5-2.9-3.1-4.3-4.6l-77.3,155.4h-.3Z"/>
      <path d="M1361.2,607c-2.9-.5-4.3-2.6-3.8-4.7.4-1.8,9.8-43.2,48.7-50.1,32.5-5.7,48.9,12,53.9,18.8,10.9-2.8,51.5-13.1,67-15.5,17.5-2.7,26.4,9,28.6,15.6.7,2-.4,4.2-2.4,4.9s-4.2-.4-4.9-2.4c-.5-1.3-5.1-12.8-20.1-10.5-17.2,2.7-68.4,15.9-68.9,16-1.7.4-3.5-.3-4.4-1.8-.5-.9-13.9-23.4-47.5-17.5-33.8,5.9-42.4,43.7-42.5,44-.4,1.8-2,3.1-3.8,3.1h.1Z"/>
      <path class="st2" d="M1086.5,1208.6l59.1,431.5h237.4c4.9,0,8-2.8,8-7,.3-62.1-88.5-58.2-88.5-58.2l-65.7-375.9-150.3,9.6Z"/>
      <path class="st3" d="M1281.8,1460.5h-160c-2.1,0-3.9-1.7-3.9-3.9s1.7-3.9,3.9-3.9h160c2.1,0,3.9,1.7,3.9,3.9s-1.7,3.9-3.9,3.9Z"/>
      <path d="M1383,1643.9h-237.4c-1.9,0-3.6-1.4-3.8-3.4l-59.1-431.5c0-1.1.2-2.2.8-3,.7-.8,1.7-1.4,2.8-1.4l150.3-9.6c2,0,3.7,1.3,4.1,3.2l65.1,372.7c11.8,0,51,1.7,73.4,23.2,10.5,10.1,15.8,23.3,15.8,39s-4.9,10.8-11.9,10.8h-.1ZM1149,1636.2h234c1.6,0,4.1-.4,4.1-3.1,0-13.5-4.4-24.7-13.4-33.3-23.7-22.8-70.6-21-71.1-21-1.9,0-3.7-1.3-4-3.2l-65.1-372.5-142.7,9.2,58.1,424h0Z"/>
      <path d="M1145.6,1640.1h237.4c4.9,0,8-2.8,8-7,.3-62.1-88.5-58.2-88.5-58.2l-.4-2.7h-165.8l9.3,67.9h0Z"/>
      <path class="st2" d="M823,1640c-4.9,0-8-2.8-8-7-.3-62.1,70.2-61,70.2-61l-93.6-276.8c-12.8-37.8,7.6-78.9,45.5-91.4l74.2-24.6,147,409.7-126.3,51.1h-109Z"/>
      <path class="st3" d="M849.2,1469.3c-1.6,0-3.1-1-3.7-2.6-.7-2,.4-4.2,2.4-4.9l146.9-50.2c2-.7,4.2.4,4.9,2.4s-.4,4.2-2.4,4.9l-146.9,50.2c-.4,0-.8.2-1.3.2h0Z"/>
      <path d="M815,1633c-.3-62.1,70.2-61,70.2-61l-2.6-12.1,145.7-55,30.1,83.9-126.3,51.1h-109c-.6,0-1.2,0-1.7,0-1.1-.2-2.1-.5-2.9-1-2.1-1.2-3.3-3.3-3.3-5.9h-.2Z"/>
      <path d="M823,1643.9c-7,0-11.8-4.5-11.9-10.8,0-18,5.5-32.8,16.7-43.8,16.8-16.6,41.3-20.1,52-20.9l-91.9-271.9c-6.5-19.3-5.1-39.9,4-58.2,9.1-18.2,24.7-31.8,44-38.2l74.2-24.6c2-.7,4.2.4,4.9,2.4l147,409.7c.7,2-.3,4.1-2.2,4.9l-126.3,51.1c-.5.2-1,.3-1.5.3h-109.1,0ZM885,1575.9c-2.1,0-33.1.3-51.8,18.8-9.6,9.5-14.4,22.4-14.3,38.2,0,2.7,2.6,3.1,4.1,3.1h108.3l122.1-49.4-144.5-402.7-70.6,23.4c-17.3,5.8-31.4,17.9-39.5,34.3s-9.4,34.9-3.6,52.2l93.6,276.8c.4,1.2.2,2.5-.5,3.5s-2,1.6-3.2,1.6h0v.2Z"/>
      <path d="M1203.7,976.1c-.5-38.8-1.2-94.3-2.2-145.1l92-84.2c-53.8-58.9-140.7-70.5-192-73.1h-73.7c-28.5-.8-123.5,14.3-177.3,73.1l68.3,59.9c-3.3,7.1-5.1,15.1-5.1,23.4,0,19.1,9.5,36,24.1,46.2l-1,99.7-134,252.1,168.4,116.3,312.7,4.5-80.1-372.9h-.1Z"/>
      <path class="st2" d="M1067.3,703.8c31.6-1,56.8-28.4,57-28.5-8.1-.8-15.8-1.3-22.8-1.7h-73.7c-4.5,0-10.7.2-18,1l-.4,2.1s26.2,28.1,57.9,27.1h0Z"/>
      <path d="M1482.2,1643.9h-844.4c-2.1,0-3.9-1.7-3.9-3.9s1.7-3.9,3.9-3.9h844.4c2.1,0,3.9,1.7,3.9,3.9s-1.7,3.9-3.9,3.9Z"/>
      <path d="M661.9,762.7c-1.5,0-2.9-.8-3.5-2.2-12.6-27.2,3.7-49.7,12-58.7-35.4-16.4-42.2-37.5-43.4-46.1-1.4-9.5,1.3-18,7.2-22.9,12.9-10.6,68,8.7,78.9,12.6,2,.7,3.1,3,2.3,5-.7,2-3,3.1-5,2.3-25.4-9.2-64.3-19.6-71.3-13.9-3.7,3-5.4,9.1-4.5,15.7,1.1,7.7,7.7,27.2,44.1,42.4,1.3.5,2.1,1.7,2.3,3s-.3,2.7-1.4,3.6c-1.2,1-28.1,23.8-14.3,53.6.9,1.9,0,4.3-1.9,5.2-.5.2-1.1.4-1.6.4h.1Z"/>
      <path d="M644.5,723.5c-3.7,0-7.2-.9-10-2.8-11.4-7.7-35.8-35.8-36.8-37-1.4-1.6-1.2-4.1.4-5.5,1.6-1.4,4.1-1.2,5.5.4.2.3,24.7,28.6,35.3,35.6,3.7,2.5,10,1.9,16.1-1.5,6.8-3.8,11.1-9.8,10.9-15.3,0-2.1,1.6-4,3.7-4,2.1,0,3.9,1.6,4,3.7.4,10.2-7.4,18.2-14.9,22.4-4.8,2.7-9.7,4-14.2,4h0Z"/>
      <path d="M618.9,752.1c-7.3,0-13.2-1.9-13.7-2-2-.7-3.2-2.9-2.5-4.9s2.9-3.2,4.9-2.5c.2,0,16.5,5.2,24.9-2.8,7.7-7.3.8-20.5.7-20.6-1-1.9-.3-4.2,1.6-5.3,1.9-1,4.2-.3,5.3,1.6.4.7,9.8,18.5-2.2,29.9-5.5,5.2-12.7,6.6-18.9,6.6h0Z"/>
      <path d="M674.2,640.8c-1.4,0-2.7-.7-3.4-2l-12.3-22.6c-1-1.9-.3-4.2,1.6-5.3,1.9-1,4.2-.3,5.3,1.6l12.3,22.6c1,1.9.3,4.2-1.6,5.3-.6.3-1.2.5-1.9.5h0Z"/>
      <path d="M630.5,653c-1.1,0-2.3-.5-3-1.5l-7.4-9.4c-1.3-1.7-1.1-4.1.6-5.5,1.7-1.3,4.1-1.1,5.5.6l7.4,9.4c1.3,1.7,1.1,4.1-.6,5.5-.7.6-1.6.8-2.4.8h0Z"/>
      <path d="M1283.8,1352.8l-312.7-4.5c-.8,0-1.5-.3-2.2-.7l-168.4-116.3c-1.6-1.1-2.1-3.3-1.2-5l133.6-251.3.9-96.8c-15.1-11.4-24.1-29.2-24.1-48.2s1.4-15.3,4.3-22.4l-66.2-58.1c-.8-.7-1.3-1.7-1.3-2.7s.3-2.1,1-2.8c58.2-63.7,158.5-75.1,180.2-74.3h73.6c88.4,4.4,153.9,29.5,194.9,74.3,1.4,1.6,1.3,4-.2,5.5l-90.7,83c1,50.4,1.8,105.4,2.2,143l80,372.5c.2,1.2,0,2.4-.8,3.3-.7.9-1.8,1.4-3,1.4h0ZM972.3,1340.6l306.6,4.4-79.1-368.1c-.5-38.8-1.3-94.8-2.3-145.9,0-1.1.4-2.2,1.3-2.9l89.1-81.5c-39.7-41.5-102.5-64.8-186.7-69.1h-73.5c-27.9-.7-119,14.2-171.7,69l65.3,57.3c1.3,1.1,1.7,3,1,4.5-3.2,6.9-4.8,14.2-4.8,21.8,0,17.1,8.4,33.2,22.4,43,1.1.7,1.7,1.9,1.7,3.2l-1,99.7c0,.6-.2,1.2-.5,1.8l-132.4,249.1,164.5,113.6h0Z"/>
      <path class="st2" d="M918.7,810.6c-2.1,0-3.9-1.7-3.9-3.9v-50.6c0-2.1,1.7-3.9,3.9-3.9s3.9,1.7,3.9,3.9v50.6c0,2.1-1.7,3.9-3.9,3.9Z"/>
      <path class="st2" d="M1201.5,839.3c-2.1,0-3.9-1.7-3.9-3.9l-.3-79.4c0-2.1,1.7-3.9,3.9-3.9s3.9,1.7,3.9,3.9l.3,79.4c0,2.1-1.7,3.9-3.9,3.9h0Z"/>
      <rect class="st0" x="873.9" y="846.8" width="213.5" height="292" transform="translate(-321.7 1493.9) rotate(-66.4)"/>
      <path class="st0" d="M1124.2,943.1c-.4,0-.7,0-1.1-.2-2.1-.6-3.2-2.8-2.6-4.8,46-153.1,31.5-223,11.1-254.8-15.1-23.7-33.5-26.5-34.3-26.6-2.1-.3-3.6-2.3-3.3-4.4.3-2.1,2.2-3.6,4.3-3.3.9,0,22.4,3.2,39.6,29.7,21.4,33,37,105.2-10,261.6-.5,1.7-2,2.8-3.7,2.8h0Z"/>
      <path class="st0" d="M929,857.8c-2.3,0-4-1.9-3.9-4.1,8.7-174.4,82.9-203.3,86.1-204.5,2-.7,4.2.3,5,2.3.7,2-.3,4.2-2.3,5-.7.3-72.6,29-81,197.6,0,2.1-1.8,3.7-3.9,3.7h0Z"/>
      <rect class="st2" x="943.7" y="906" width="173" height="110.7" transform="translate(-358.2 721) rotate(-33.2)"/>
      <path d="M988,1059.8c-1.8-.3-2.7-.9-3.3-1.8l-60.6-92.7c-.6-.9-.8-1.9-.6-2.9s.8-1.9,1.7-2.5l144.8-94.6c1.8-1.2,4.2-.7,5.4,1.1l60.6,92.7c.6.9.8,1.9.6,2.9-.2,1-.8,1.9-1.7,2.5l-144.8,94.6c-.6.4-1.4.6-2.1.6h0ZM932.8,964.4l56.3,86.2,138.3-90.4-56.3-86.2-138.3,90.4h0Z"/>
      <path d="M1039,979.7c-.4,0-112-12.6-112-12.6-2.1-.2-3.7-2.2-3.4-4.3.2-2.1,2.2-3.7,4.3-3.4l108.4,12.2,32.3-104.2c.6-2.1,2.8-3.2,4.9-2.6,2,.6,3.2,2.8,2.6,4.9l-33.3,107.2c-.5,1.6-2,2.7-3.7,2.7h0Z"/>
      <path d="M1132.8,965.2c-.6,0-85.1-12.2-85.1-12.2-2.1-.3-3.6-2.3-3.3-4.4.3-2.1,2.3-3.6,4.4-3.3l84.6,12.1c2.1.3,3.6,2.3,3.3,4.4-.3,1.9-1.9,3.3-3.8,3.3h0Z"/>
      <path d="M988,1059.8c-.3,0-.7,0-1,0-2.1-.6-3.3-2.7-2.7-4.8l22.8-82c.6-2.1,2.7-3.3,4.8-2.7s3.3,2.7,2.7,4.8l-22.8,82c-.5,1.7-2,2.8-3.7,2.8h0Z"/>
      <rect class="st0" x="897.6" y="883.3" width="134" height="292" transform="translate(-364.8 1501.2) rotate(-66.4)"/>
      <path d="M1124.2,1030c-.5,0-1,0-1.6-.3l-262.5-114.7c-2-.9-2.9-3.1-2-5.1s3.1-2.9,5.1-2l262.5,114.7c2,.9,2.9,3.1,2,5.1-.6,1.5-2.1,2.3-3.6,2.3h0Z"/>
      <path d="M1071.4,1153.1c-.5,0-1.1,0-1.6-.3l-267.6-116.9c-2-.9-2.9-3.1-2-5.1l85.5-195.7c.4-.9,1.2-1.7,2.1-2.1,1-.4,2-.4,3,0l134.2,58.6c2,.9,2.9,3.1,2,5.1s-3.1,2.9-5.1,2l-130.6-57.1-82.4,188.6,260.4,113.8,82.4-188.6-32.6-14.3c-2-.9-2.9-3.1-2-5.1s3.2-2.9,5.1-2l36.2,15.8c2,.9,2.9,3.1,2,5.1l-85.5,195.7c-.4.9-1.2,1.7-2.1,2.1-.5.2-.9.3-1.4.3h0Z"/>
      <path d="M970.1,561.4c1.6,31.6,28.5,56,60.1,54.4s56-28.5,54.4-60.1-28.5-56-60.1-54.4-56,28.5-54.4,60.1h0Z"/>
      <path d="M1017,616.2c-32.4,0-59.5-25.5-61.1-58.2-1.7-33.7,24.4-62.5,58.1-64.1s62.5,24.4,64.1,58.1c1.7,33.7-24.4,62.5-58.1,64.1h-3.1,0ZM963.7,557.7c1.5,29.4,26.6,52.1,56,50.7,29.4-1.5,52.2-26.6,50.7-56s-26.5-52.1-56-50.7c-29.4,1.5-52.2,26.6-50.7,56h0Z"/>
      <path class="st2" d="M1098.4,677.3l-2.1-74.2c-25.8-1.8-41.3-31.1-51.5-64.8-1.7-5.5-8.1-8-13-5-11.8,7.3-30,19.8-30.7,28.4-3.6,48.6-8.7,100,36.9,97.7l.8,17.2s22.4,10,30.4,10,29.2-9.4,29.2-9.4h0Z"/>
      <path d="M1022,613.7c-2.4-.2-4-2-3.9-4.1l2-29.8c0-2.1,2-3.8,4.1-3.6,2.1,0,3.8,2,3.6,4.1l-2,29.8c0,2.1-1.8,3.6-3.9,3.6h.1Z"/>
      <path d="M1038.9,677.8s8.9,7,17.3.6c8.4-6.5,9.4-25.5,9.4-25.5l-27.6,6.6.9,18.3h0Z"/>
      <path d="M1038,663.4c-2.1,0-3.8-1.6-3.9-3.7,0-2.1,1.5-4,3.7-4.1,13.7-.7,24.2-5.1,24.3-5.2,2-.8,4.3,0,5.1,2,.8,2,0,4.3-2,5.1-.5.2-11.8,5-27,5.8h-.2Z"/>
      <path d="M1030.1,622.7c-1.8,0-3.4-1.2-3.8-3.1-.4-2.1.9-4.2,3-4.6,2.9-.6,3-5.2,3-5.2,0-2.1,1.8-3.8,3.9-3.8s3.9,1.7,3.9,3.9c0,3.7-1.9,11.2-9.1,12.8h-.9Z"/>
      <path d="M1038.9,680.5c-2.1,0-3.8-1.6-3.9-3.7l-.7-13.4c-11.5-.2-20.7-3.8-27.6-10.9-17.7-18.1-16.6-54.7-13.9-90.7.2-2.1,2-3.8,4.2-3.6,2.1.2,3.7,2,3.6,4.2-2.4,32.7-3.7,68.9,11.7,84.7,6.1,6.2,14.5,9,25.5,8.5,2.1,0,4,1.5,4.1,3.7l.8,17.2c0,2.1-1.5,4-3.7,4.1h-.2,0Z"/>
      <path d="M1098.4,681.2c-2.1,0-3.8-1.7-3.9-3.8l-2.1-93.9c0-2.1,1.7-3.9,3.8-4,2.2,0,3.9,1.7,4,3.8l2.1,93.9c0,2.1-1.7,3.9-3.8,4h0Z"/>
      <path d="M1050.5,584.9c0,2.4-2,4.4-4.4,4.4s-4.4-2-4.4-4.4,2-4.4,4.4-4.4,4.4,2,4.4,4.4Z"/>
      <path d="M1015,584.8c0,2.4-2,4.4-4.4,4.4s-4.4-2-4.4-4.4,2-4.4,4.4-4.4,4.4,2,4.4,4.4Z"/>
      <path class="st2" d="M1107,593.6c0,10.4-8.5,18.8-19,18.8s-18.8-8.5-18.8-19,8.5-18.8,19-18.8,18.8,8.5,18.8,19Z"/>
      <path d="M1084.6,600.7c-.8,0-1.6-.2-2.3-.7-1.7-1.3-2.1-3.7-.9-5.4l7-9.6c1.3-1.7,3.7-2.1,5.4-.9,1.7,1.3,2.1,3.7.9,5.4l-7,9.6c-.8,1.1-1.9,1.6-3.2,1.6h0Z"/>
      <rect class="st2" x="1288.2" y="372.4" width="285.2" height="182.5"/>
      <path d="M1288.2,558.9c-1,0-2-.4-2.7-1.1-.7-.7-1.1-1.7-1.1-2.7v-182.5c0-2.1,1.6-3.9,3.8-3.9l285.2-.2c1,0,2,.4,2.7,1.1s1.1,1.7,1.1,2.7v182.5c0,2.1-1.6,3.9-3.8,3.9l-285.2.2h0ZM1292,376.4v174.8l277.6-.2v-174.8c0,0-277.6.2-277.6.2h0Z"/>
      <path d="M1430.8,494.3c-.9,0-1.8-.3-2.5-.9l-142.7-117.9c-1.7-1.4-1.9-3.8-.5-5.5s3.8-1.9,5.5-.5l140.2,115.9,140.1-116c1.7-1.4,4.1-1.1,5.5.5,1.4,1.7,1.1,4.1-.5,5.5l-142.5,118.1c-.7.6-1.6.9-2.5.9h0Z"/>
      <path d="M1573.4,558.8c-.9,0-1.8-.3-2.6-1l-105.8-93c-1.6-1.4-1.8-3.9-.4-5.5s3.9-1.8,5.5-.4l105.8,93c1.6,1.4,1.8,3.9.4,5.5-.8.9-1.8,1.3-2.9,1.3h0Z"/>
      <path d="M1288.2,558.9c-1.1,0-2.1-.4-2.9-1.3-1.4-1.6-1.3-4.1.3-5.5l105.3-92.7c1.6-1.4,4.1-1.3,5.5.3,1.4,1.6,1.3,4.1-.3,5.5l-105.3,92.7c-.7.7-1.7,1-2.6,1Z"/>
      <polygon class="st1" points="567.2 615.9 456.8 615.3 457.1 535.7 514.2 479.2 568 479.9 567.2 615.9"/>
      <path d="M455.7,538.4c-.6-.3-1.1-.9-1.4-1.5-.5-1.1-.2-2.4.7-3.3l57.1-56.5c.9-.9,2.2-1.1,3.3-.6s1.9,1.6,1.9,2.8l-.3,56.8c0,1.7-1.4,3-3.1,3l-56.8-.3c-.5,0-1,0-1.4-.4h0ZM511.1,486.5l-46.6,46.1,46.4.3.3-46.4h0Z"/>
    </g>
  </g>
</svg>