<?xml version="1.0" encoding="UTF-8"?>
<svg id="Layer_1" xmlns="http://www.w3.org/2000/svg" version="1.1" viewBox="0 0 2000 2000">
  <!-- Generator: Adobe Illustrator 29.5.1, SVG Export Plug-In . SVG Version: 2.1.0 Build 141)  -->
  <defs>
    <style>
      .st0, .st1 {
        fill: #c5cbe4;
      }

      .st1 {
        stroke: #000;
        stroke-miterlimit: 10;
        stroke-width: 7px;
      }

      .st2 {
        fill: #7388e7;
      }

      .st3 {
        fill: #fff;
      }

      .st4 {
        fill: #4763e2;
      }
    </style>
  </defs>
  <g id="Layer_6">
    <path class="st4" d="M1191.6,497c102.3,14.6,199.4,57.1,275.7,131.2,152.1,147.5,148.9,392.8-25.8,523.9-26.9,20.2-57.7,36.8-91.2,40.4-47,5.2-91.5-15.4-138.2-15.8-126.5-1.1-206.3,125.3-333,129.1-70.3,2.1-141.8-23.9-194.7-70.1-96.2-84-147.5-213-135.3-340.3,29.4-306.4,372.9-436.9,642.3-398.5h.2Z"/>
    <path d="M1047.6,1506.3s-16.7-226.5-57.3-344.6c-51.2-148.9-185.3-195.4-203.3-202.7-1.7-.7-26.9-10.1-36.2-12.4-25.6-6.3-104.2-16.6-104.2-16.6-178-16.1-257.1,56.7-346.4,173.2-126.9,165.6-4.4,356.1,227.6,241.6l-14.7,76.5h345.6l4.5,85h184.4Z"/>
    <path class="st3" d="M582.8,930.4s88,106.2,133.1,103.1c45.1-3.1,46.5-75.7,46.5-75.7l11.1-3.7c-8.1-2.9-17.6-6.2-22.6-7.4-25.6-6.3-104.2-16.6-104.2-16.6-23.2-2.1-44.7-2.7-64.8-1.9l1,2.2h-.1Z"/>
    <path d="M1047.6,1509.6h-184.4c-1.7,0-3.2-1.4-3.3-3.1l-4.3-81.9h-342.5c-1,0-1.9-.4-2.5-1.2-.6-.8-.9-1.7-.7-2.7l13.5-70.1c-52.4,24.9-103,35.8-146.6,31.4-41.4-4.1-75.7-21.5-99.3-50.1-48.5-59-40.3-151.6,20.2-230.6,46-60.1,87.6-106.4,140.9-137.2,57.3-33.1,123.5-45,208.4-37.3,3.3.4,79.2,10.4,104.7,16.7,9.5,2.3,34.6,11.7,36.6,12.5.8.3,1.8.7,3.1,1.2,98.5,38.6,170.2,110.9,202.1,203.4,40.3,117.1,57.3,343.1,57.5,345.4,0,.9-.2,1.8-.9,2.5-.6.7-1.5,1-2.4,1h0ZM866.3,1503h177.8c-2.3-29.1-19.6-231.9-56.9-340.2-31.2-90.7-101.6-161.6-198.3-199.5-1.3-.5-2.3-.9-3.2-1.3-1.9-.8-26.7-10-35.7-12.2-25.1-6.2-103.1-16.4-103.8-16.5-183.3-16.6-260.9,64.4-343.4,172-58.6,76.5-66.8,165.9-20.3,222.5,22.4,27.3,55.2,43.8,94.9,47.8,44,4.4,95.5-7.2,149-33.6,1.1-.5,2.4-.4,3.4.3,1,.8,1.5,2,1.2,3.2l-14,72.6h341.6c1.7,0,3.2,1.4,3.3,3.1l4.3,81.9h.1Z"/>
    <path class="st4" d="M1121.2,1276.3c-10,43.7,17.3,87.3,61.1,97.4,43.7,10,87.3-17.3,97.4-61.1,10-43.7-17.3-87.3-61.1-97.4-43.7-10-87.3,17.3-97.4,61.1Z"/>
    <path class="st3" d="M513.1,1421.3h365l21.7,85h-401.7c10.9-74.7,14.9-85,14.9-85h0Z"/>
    <path d="M899.9,1509.2h-401.7c-.8,0-1.6-.4-2.2-1-.5-.6-.8-1.5-.7-2.3,10.8-74.2,14.9-85.2,15.1-85.7.4-1.1,1.5-1.8,2.7-1.8h365c1.3,0,2.5.9,2.8,2.2l21.7,85c.2.9,0,1.8-.5,2.5s-1.4,1.1-2.3,1.1h.1ZM501.5,1503.4h394.6l-20.2-79.2h-360.6c-1.4,5.2-5.5,23.3-13.7,79.2h0Z"/>
    <path d="M878.9,1424.6c-1.8,0-3.3-1.5-3.3-3.3l1.6-295.4c.2-36.9-11.9-72.5-34.9-102.9-1.1-1.4-.8-3.5.6-4.6,1.4-1.1,3.5-.8,4.6.6,23.9,31.5,36.5,68.4,36.3,106.8l-1.6,295.4c0,1.8-1.5,3.3-3.3,3.3h0Z"/>
    <path d="M655.4,786c-21.6,46.7-1.1,102.1,45.6,123.7,46.7,21.6,102.1,1.1,123.7-45.6,21.6-46.7,1.1-102.1-45.6-123.7-46.7-21.6-102.1-1.1-123.7,45.6Z"/>
    <path class="st3" d="M663.3,878c33.1,17.4,60.7,2.8,63.6-24.6,0,0,41.7-81.1,77.7-69.1,22,11,30.6,37.4,24.4,66.6-2.7,12.8-7.8,48.1-16.3,73-8.5,24.8-19.4,52.9-78.3,22.7l-18.6,40.4-80.6-48.1,28.1-60.9h0Z"/>
    <path d="M725.8,979.3c-2.3-.6-3.2-2.2-2.8-3.7l8.6-29.7c.2-.8.8-1.5,1.6-1.8s1.7-.3,2.5,0c23.4,12,40.5,15.5,52.3,10.7s16.9-17.2,21.9-31.8c6.4-18.7,10.9-43.5,13.8-59.9.9-5.2,1.7-9.6,2.4-12.8,6.1-29-2.6-53.3-22.9-63.5-1.4-.7-2-2.4-1.3-3.9.7-1.4,2.5-2,3.9-1.3,22.7,11.4,32.6,38.1,25.9,69.8-.6,3-1.4,7.5-2.4,12.6-3,16.6-7.5,41.6-14,60.7-4.2,12.3-10,29.2-25.2,35.3-12.9,5.2-30.6,2.1-54-9.4l-7.7,26.4c-.4,1.3-1.5,2.1-2.8,2.1l.2.2Z"/>
    <path d="M635.2,941.8c-.4,0-.8,0-1.2-.3-1.4-.7-2.1-2.4-1.4-3.8l28.1-60.9c.7-1.5,2.4-2.1,3.8-1.4,1.4.7,2.1,2.4,1.4,3.8l-28.1,60.9c-.5,1.1-1.5,1.7-2.6,1.7Z"/>
    <path d="M734.4,949.5c-.5,0-.9,0-1.3-.3l-20.7-11c-1.4-.7-1.9-2.5-1.2-3.9s2.5-1.9,3.9-1.2l20.7,11c1.4.7,1.9,2.5,1.2,3.9s-1.5,1.5-2.6,1.5h0Z"/>
    <path d="M764.2,853.5c-1.7,2.8-.8,6.3,2,8s6.3.8,8-2,.8-6.3-2-8-6.3-.8-8,2Z"/>
    <path d="M806.9,866.8c-1.7,2.8-.8,6.3,2,8s6.3.8,8-2,.8-6.3-2-8-6.3-.8-8,2Z"/>
    <path d="M711.8,935.2s-10.3,35.7,13.9,43.2l8.6-31.7-22.6-11.5h0Z"/>
    <path class="st3" d="M698.7,848c-6,13.1-.3,28.5,12.7,34.5,13.1,6,28.5.3,34.5-12.7,6-13.1.3-28.5-12.7-34.5-13.1-6-28.5-.3-34.5,12.7Z"/>
    <path d="M724.7,868c-1.4,0-2.6-1-2.8-2.3l-3.1-16.1c-.3-1.6.7-3.1,2.3-3.4,1.6-.3,3.1.7,3.4,2.3l3.1,16.1c.3,1.6-.7,3.1-2.3,3.4h-.6Z"/>
    <path d="M795.2,901.6c-2-.2-3.1-1.7-2.9-3.3l5.3-40.5c.2-1.6,1.6-2.7,3.2-2.5,1.6.2,2.7,1.7,2.5,3.2l-5.3,40.5c-.2,1.5-1.4,2.5-2.9,2.5h.1Z"/>
    <path class="st0" d="M780.5,739.7c-47.6-22-104-1.2-126,46.5-1.1,2.3-2.1,4.7-2.9,7.1l182.9,47.9c6.7-41.1-14.4-83.2-54-101.4h0Z"/>
    <path class="st1" d="M1301.8,1102.2c0,97.5,138.6,305.5,198.1,390.3,12.9,18.4,40.2,18.4,53.2,0,59.5-84.8,198.1-292.8,198.1-390.3s-100.6-224.7-224.7-224.7-224.7,100.6-224.7,224.7Z"/>
    <circle class="st3" cx="1526.4" cy="1102.2" r="122.1"/>
    <path d="M1526.4,1509.2H439.4c-1.6,0-2.9-1.3-2.9-2.9s1.3-2.9,2.9-2.9h1087c1.6,0,2.9,1.3,2.9,2.9s-1.3,2.9-2.9,2.9Z"/>
    <path class="st3" d="M1102.3,1294.1l-32.1-116.4c-3.1-11.3-13.3-19-25-19H470v286.1h709.5v-107.5c0-23.8-19.2-43.2-42.9-43.2h-34.3Z"/>
    <path d="M924.3,1447.7c-1.6,0-2.9-1.3-2.9-2.9v-285.5c0-1.6,1.3-2.9,2.9-2.9s2.9,1.3,2.9,2.9v285.5c0,1.6-1.3,2.9-2.9,2.9Z"/>
    <rect class="st2" x="596.9" y="1227.3" width="204.1" height="133.7"/>
    <path d="M711.7,1273.8h-25.3c-1.6,0-2.9-1.3-2.9-2.9v-43.7c0-1.6,1.3-2.9,2.9-2.9h25.3c1.6,0,2.9,1.3,2.9,2.9v43.7c0,1.6-1.3,2.9-2.9,2.9ZM689.3,1268h19.5v-37.9h-19.5v37.9Z"/>
    <path d="M904.4,861.8c-.7,0-253.4-63.9-253.4-63.9-1.5-.4-2.5-2-2.1-3.5s2-2.5,3.5-2.1l252.7,63.8c1.5.4,2.5,2,2.1,3.5-.3,1.3-1.5,2.2-2.8,2.2Z"/>
    <path class="st3" d="M376.5,1185.4c-.5,0-1,0-1.5-.4-1.6-.8-2.3-2.8-1.4-4.4.4-.8,41.5-80.7,122.1-104.4,83.3-24.5,139.4-25.5,169.5-26.1h3.6c1.8,0,3.3,1.4,3.3,3.1s-1.4,3.3-3.2,3.3h-3.6c-29.8.6-85.3,1.6-167.7,25.9-77.8,22.9-117.7,100.3-118.1,101.1-.6,1.1-1.7,1.8-2.9,1.8h0Z"/>
    <path class="st3" d="M542.9,1070.7c-.4,0-.7,0-1.1-.2-1.7-.6-2.6-2.5-2-4.2l16.3-46.4c.6-1.7,2.5-2.6,4.2-2s2.6,2.5,2,4.2l-16.3,46.4c-.5,1.3-1.7,2.2-3.1,2.2h0Z"/>
    <rect class="st2" x="1128.5" y="1375.8" width="50.9" height="39.3"/>
    <path d="M1179.5,1447.7H470c-1.6,0-2.9-1.3-2.9-2.9v-286.1c0-1.6,1.3-2.9,2.9-2.9h575.2c12.9,0,24.4,8.7,27.8,21.2l31.6,114.3h32c25.3,0,45.8,20.7,45.8,46.1v107.5c0,1.6-1.3,2.9-2.9,2.9h0ZM472.9,1441.9h703.7v-104.6c0-22.2-18-40.3-40.1-40.3h-34.2c-1.3,0-2.4-.9-2.8-2.1l-32.1-116.4c-2.8-10-11.9-16.9-22.2-16.9H472.9v280.3h0Z"/>
    <path class="st3" d="M1100.4,1445c0,32.7-26.5,59.2-59.2,59.2s-59.2-26.5-59.2-59.2,26.5-59.2,59.2-59.2,59.2,26.5,59.2,59.2Z"/>
    <path d="M1041.2,1507.1c-34.2,0-62.1-27.8-62.1-62.1s27.8-62.1,62.1-62.1,62.1,27.8,62.1,62.1-27.8,62.1-62.1,62.1ZM1041.2,1388.8c-31,0-56.3,25.3-56.3,56.3s25.3,56.3,56.3,56.3,56.3-25.3,56.3-56.3-25.3-56.3-56.3-56.3Z"/>
    <path class="st3" d="M677.5,1445c0,32.7-26.5,59.2-59.2,59.2s-59.2-26.5-59.2-59.2,26.5-59.2,59.2-59.2,59.2,26.5,59.2,59.2Z"/>
    <path d="M618.4,1507.1c-34.2,0-62.1-27.8-62.1-62.1s27.8-62.1,62.1-62.1,62.1,27.8,62.1,62.1-27.8,62.1-62.1,62.1ZM618.4,1388.8c-31,0-56.3,25.3-56.3,56.3s25.3,56.3,56.3,56.3,56.3-25.3,56.3-56.3-25.3-56.3-56.3-56.3Z"/>
    <path d="M653.3,1445c0,19.3-15.6,34.9-34.9,34.9s-34.9-15.6-34.9-34.9,15.6-34.9,34.9-34.9,34.9,15.6,34.9,34.9Z"/>
    <path d="M1076.1,1445c0,19.3-15.6,34.9-34.9,34.9s-34.9-15.6-34.9-34.9,15.6-34.9,34.9-34.9,34.9,15.6,34.9,34.9Z"/>
    <path class="st3" d="M899.6,1089.6c-21.4-45.7-31.8-52.4-89.1-49.6s-80.8,19.2-80.8,19.2l-54.2-5.6c-31-3.2-58.3,20.3-59.7,51.4-1.4,31,23.5,56.8,54.5,56.6h2.2c56.8,1,62.2-12.5,62.2-12.5,0,0,14.2,34.3,42,29.9,12-1.9,15.4-10.2,15.3-17.3,6.1,8.4,14.4,15,25.1,14.1,24.1-1.8,13.2-30.8,10-38.2,3.5,7.6,19,37.7,39.8,34.2,21.7-3.7,6.1-38.5,3.2-44.3,3.5,6.7,19,43.5,42.7,35.6,19.9-6.6,8.1-28-13.3-73.6h0Z"/>
    <path d="M771.7,1182.7c-20.6,0-33.1-19-37.8-27.9-6.2,4.7-22,10.8-61.3,10.1h-2.2c-16.2,0-30.9-6.2-41.8-17.5-11-11.5-16.7-26.5-16-42.4.7-16,7.8-30.5,19.9-40.9,12.1-10.4,27.5-15.3,43.4-13.6l53.1,5.5c5.3-3.2,29.9-16.6,81.5-19.1,57.9-2.8,69.9,3.9,92.2,51.5,1.4,3.1,2.8,6,4.2,8.9,14.4,30.5,23,48.9,18.3,60.1-1.8,4.3-5.5,7.3-11.1,9.2-13.7,4.5-24.6-3.5-32.6-13.4.5,5,0,9.9-2,13.8-2.3,4.5-6.4,7.3-11.9,8.3-13.2,2.2-24.1-7-31.9-17.1.2,4.6-.6,9-2.8,12.7-3,5-8.2,7.8-15.5,8.3-8.5.6-16.3-2.6-23.3-9.8-2.4,6.9-8.3,11.5-16.9,12.9-1.9.3-3.7.4-5.5.4h0ZM734.8,1145.6c1.3,0,2.5,1,3,2.2,0,.3,13.6,31.9,38.4,27.9,11-1.7,12.6-9.5,12.5-14,0-1.4.9-2.7,2.2-3.1,1.4-.5,2.8,0,3.7,1.2,6.6,9.1,14.1,13.4,22.3,12.8,5.1-.4,8.5-2.1,10.3-5.2,3.9-6.5,1-19-3.1-28.4-.7-1.6,0-3.5,1.7-4.3,1.6-.7,3.5,0,4.3,1.6,2.8,6,17.6,35.5,36.3,32.4,3.5-.6,5.8-2.2,7.2-4.8,4.6-9-3-28.2-6.3-34.8-.8-1.6-.2-3.6,1.4-4.4,1.6-.8,3.6-.2,4.4,1.4.3.6.7,1.3,1.1,2.2,4.6,9.4,18.6,38.2,37.7,31.8,3.8-1.3,6.1-3,7.1-5.5,3.6-8.5-5-26.9-18.2-54.7-1.3-2.9-2.7-5.8-4.2-8.9-21.1-45.1-30.8-50.4-86-47.7-55.4,2.7-78.9,18.5-79.1,18.6-.6.4-1.4.6-2.2.6l-54.2-5.6c-14.1-1.5-27.7,2.8-38.5,12.1-10.7,9.2-17,22.1-17.6,36.3-.6,14.1,4.4,27.4,14.2,37.6,9.8,10.1,22.9,15.6,37,15.6h2.2c49.7.9,58.4-9.5,59.2-10.6.4-1.3,1.5-2,2.8-2.1h.2l.2-.2Z"/>
    <path d="M735.6,1154.2c-1.3,0-2.5-.8-3-2.1l-15.2-39c-.7-1.7.2-3.6,1.9-4.2,1.7-.7,3.6.2,4.2,1.9l15.2,39c.7,1.7-.2,3.6-1.9,4.2-.4.2-.8.2-1.2.2Z"/>
    <path d="M792,1165c-1.3,0-2.6-.8-3.1-2.2l-27.3-76.4c-.6-1.7.3-3.6,2-4.2s3.6.3,4.2,2l27.3,76.4c.6,1.7-.3,3.6-2,4.2-.4,0-.7.2-1.1.2h0Z"/>
    <path d="M827.2,1141c-1.3,0-2.5-.8-3-2l-24.3-60c-.7-1.7,0-3.6,1.8-4.3,1.7-.7,3.6,0,4.3,1.8l24.3,60c.7,1.7,0,3.6-1.8,4.3-.4.2-.8.2-1.2.2h0Z"/>
    <path d="M879.5,1154.2c-1.3,0-2.5-.8-3-2.1l-32.6-80.9c-.7-1.7,0-3.6,1.8-4.3,1.7-.7,3.6,0,4.3,1.8l32.6,80.9c.7,1.7,0,3.6-1.8,4.3-.4.2-.8.2-1.2.2h0Z"/>
    <path d="M1102.3,1297h-178c-1.6,0-2.9-1.3-2.9-2.9s1.3-2.9,2.9-2.9h178c1.6,0,2.9,1.3,2.9,2.9s-1.3,2.9-2.9,2.9Z"/>
    <path d="M783,917.1c-4.2,0-8.5-1.9-11.3-5.4-2.4-3-3.5-6.8-3.1-10.6s2.3-7.3,5.3-9.7c1.2-1,3.1-.8,4.1.5l14.4,18.1c.5.6.7,1.4.6,2.1,0,.8-.5,1.5-1.1,1.9-2.7,2.1-5.8,3.1-9,3.1h0ZM775.6,898.1c-.7,1.1-1.1,2.3-1.3,3.6-.3,2.3.4,4.6,1.8,6.4,2.3,2.9,6.2,3.9,9.6,2.8l-10.2-12.8h.1Z"/>
  </g>
</svg>