<?xml version="1.0" encoding="UTF-8"?>
<svg id="Layer_1" xmlns="http://www.w3.org/2000/svg" version="1.1" viewBox="0 0 2000 2000">
  <!-- Generator: Adobe Illustrator 29.5.1, SVG Export Plug-In . SVG Version: 2.1.0 Build 141)  -->
  <defs>
    <style>
      .st0 {
        fill: #c5cbe4;
      }

      .st1 {
        fill: #ffb743;
      }

      .st2 {
        fill: #7388e7;
      }

      .st3 {
        fill: #fff;
      }

      .st4 {
        fill: #4763e2;
      }
    </style>
  </defs>
  <g id="Layer_3">
    <g>
      <path class="st1" d="M1431.3,1370.4c0,59.4-48.2,107.6-107.6,107.6s-107.6-48.2-107.6-107.6,48.2-107.6,107.6-107.6,107.6,48.2,107.6,107.6Z"/>
      <path class="st4" d="M1589,721.2c-29.2-173.8-150-307.9-342.7-341.9-175.5-31-389.3,13.9-504.1,153.2-63.1,76.6-84.4,169.4-135.7,250.9-68.3,108.3-177.6,166.9-198.4,301.5-29.2,189,97.2,351.9,280.6,414.7,119.8,41,301.9,41.6,402.1-45,47.9-41.4,65.7-102.4,101.4-152.1,42.1-58.6,106-81.4,172.5-107.7,88.1-34.8,147.8-95.5,186.6-178.7,42-90,53.9-197.7,37.6-294.8h0Z"/>
      <path d="M763.1,470c0,43.2-35,78.3-78.3,78.3s-78.3-35-78.3-78.3,35-78.3,78.3-78.3,78.3,35,78.3,78.3Z"/>
      <path d="M699,582.9c0,43.2-35,78.3-78.3,78.3s-78.3-35-78.3-78.3,35-78.3,78.3-78.3,78.3,35,78.3,78.3Z"/>
      <path d="M606.6,663.5c-45.4,0-82.3-36.9-82.3-82.3s36.9-82.3,82.3-82.3,82.3,36.9,82.3,82.3-36.9,82.3-82.3,82.3ZM606.6,507c-40.9,0-74.2,33.3-74.2,74.2s33.3,74.2,74.2,74.2,74.2-33.3,74.2-74.2-33.3-74.2-74.2-74.2Z"/>
      <rect class="st3" x="834" y="430.1" width="656.5" height="513.6"/>
      <path d="M1490.6,506h-656.5c-2.2,0-4.1-1.8-4.1-4.1s1.8-4.1,4.1-4.1h656.5c2.2,0,4.1,1.8,4.1,4.1s-1.8,4.1-4.1,4.1Z"/>
      <path d="M1490.6,947.8h-656.5c-2.2,0-4.1-1.8-4.1-4.1V430.1c0-2.2,1.8-4.1,4.1-4.1h656.5c2.2,0,4.1,1.8,4.1,4.1v513.6c0,2.2-1.8,4.1-4.1,4.1h0ZM838.1,939.7h648.4v-505.5h-648.4v505.5Z"/>
      <path d="M1461.7,488.1c-1,0-2.1-.4-2.9-1.2l-35.9-35.9c-1.6-1.6-1.6-4.2,0-5.7s4.2-1.6,5.7,0l35.9,35.9c1.6,1.6,1.6,4.2,0,5.7-.8.8-1.8,1.2-2.9,1.2h.1Z"/>
      <path d="M1425.8,488.1c-1,0-2.1-.4-2.9-1.2-1.6-1.6-1.6-4.2,0-5.7l35.9-35.9c1.6-1.6,4.2-1.6,5.7,0,1.6,1.6,1.6,4.2,0,5.7l-35.9,35.9c-.8.8-1.8,1.2-2.9,1.2h.1Z"/>
      <path d="M938.9,906.7c11.8,2.4,23.2-5.4,25.3-17.2l39.7-221.1-31-6.3-50.5,218.8c-2.7,11.7,4.8,23.4,16.6,25.8h0Z"/>
      <path class="st0" d="M1166,539.1c-13.2,84-92,141.5-176,128.3s-141.5-92-128.3-176,92-141.5,176-128.3c84,13.2,141.5,92,128.3,176Z"/>
      <path d="M1014.2,670.4c-8.2,0-16.5-.6-24.8-1.9-86.1-13.5-145.2-94.5-131.7-180.6,6.5-41.7,28.9-78.4,63.1-103.2,34.1-24.9,75.9-35,117.6-28.4,41.7,6.5,78.4,28.9,103.2,63.1,24.9,34.1,35,75.9,28.4,117.6-6.5,41.7-28.9,78.4-63.1,103.2-27.3,19.9-59.6,30.4-92.8,30.4v-.2ZM1013.5,362.4c-31.5,0-62.1,9.9-88,28.8-32.4,23.6-53.6,58.4-59.8,97.9-12.8,81.7,43.2,158.5,124.9,171.4,7.8,1.2,15.6,1.8,23.3,1.8,72.5,0,136.5-52.9,148-126.7,12.8-81.7-43.2-158.5-124.9-171.4-7.9-1.2-15.7-1.8-23.6-1.8h0Z"/>
      <rect class="st3" x="1173.3" y="732.6" width="388.7" height="70.8"/>
      <path d="M1562,807.4h-388.7c-2.2,0-4.1-1.8-4.1-4.1v-70.8c0-2.2,1.8-4.1,4.1-4.1h388.7c2.2,0,4.1,1.8,4.1,4.1v70.8c0,2.2-1.8,4.1-4.1,4.1ZM1177.4,799.3h380.6v-62.6h-380.6v62.6Z"/>
      <path class="st2" d="M1244.8,767.9c0,11.8-9.6,21.4-21.4,21.4s-21.4-9.6-21.4-21.4,9.6-21.4,21.4-21.4,21.4,9.6,21.4,21.4Z"/>
      <path class="st3" d="M747.1,1536.4l12.9,105.3h235.6c5.1,0,8.4-2.9,8.4-7.3.3-65-92.6-62.8-92.6-62.8l-6.9-45.3-157.3,10.1h-.1Z"/>
      <path d="M995.5,1645.8h-235.6c-2.1,0-3.8-1.5-4-3.6l-12.9-105.3c0-1.1.2-2.2.9-3.1s1.8-1.4,2.9-1.5l157.3-10.1c2.1,0,4,1.4,4.3,3.4l6.4,41.8c12.4.2,53.3,2.8,76.7,25.8,11,10.8,16.6,24.6,16.5,41.1,0,6.7-5.1,11.4-12.4,11.4h-.1ZM763.5,1637.6h232c1.6,0,4.3-.4,4.3-3.3,0-14.1-4.6-26-14-35.2-24.7-24.3-74-23.5-74.4-23.5-2,0-3.8-1.4-4.1-3.5l-6.3-41.6-149.3,9.6,11.9,97.4h-.1Z"/>
      <path class="st3" d="M538.2,1568.7l4.5-54.9h161.1l-5.3,127.9h-185.6c-6,0-10.9-4.2-10.7-9.3.5-17.1,6.6-54.6,36-63.6h0Z"/>
      <path d="M698.5,1645.8h-185.6c-4.3,0-8.4-1.7-11.2-4.6-2.4-2.5-3.7-5.7-3.6-9,.3-9.1,3.3-54.1,36.2-66.5l4.3-52.2c.2-2.1,1.9-3.7,4.1-3.7h161.1c1.1,0,2.2.5,2.9,1.3s1.2,1.9,1.1,3l-5.3,127.9c0,2.2-1.9,3.9-4.1,3.9h.1ZM546.4,1517.9l-4.2,51.2c0,1.7-1.3,3.1-2.9,3.6-30.1,9.3-32.9,51.5-33.1,59.8,0,1.4.7,2.4,1.3,3.1,1.3,1.3,3.2,2.1,5.4,2.1h181.7l4.9-119.7h-153.1Z"/>
      <path d="M502.2,1632.3c-.2,5.1,4.7,9.3,10.7,9.3h185.6l3-73h-163.4c-29.4,9-35.5,46.5-36,63.6h.1Z"/>
      <path d="M759.9,1641.7h235.6c5.1,0,8.4-2.9,8.4-7.3.3-65-92.6-62.8-92.6-62.8l-.4-2.9h-159.8l8.9,73h-.1Z"/>
      <path d="M1323.7,1645.8H468.3c-2.2,0-4.1-1.8-4.1-4.1s1.8-4.1,4.1-4.1h855.3c2.2,0,4.1,1.8,4.1,4.1s-1.8,4.1-4.1,4.1h0Z"/>
      <path class="st3" d="M599.7,882.4l230.5,8.2,116.8,661.4h-202.3l-15.6-83.8-3.4,83.8h-205l15.1-514.7c1-52.8,6.8-136.2,63.9-154.8h0Z"/>
      <path d="M946.9,1556h-202.3c-2.1,0-3.8-1.6-4-3.7l-7.3-73.5-3.6,73.3c0,2.2-1.9,3.9-4.1,3.9h-205c-1.1,0-2.1-.4-2.9-1.2-.8-.8-1.2-1.9-1.1-3l15.1-514.7c1.2-64.1,10-140,66.7-158.6.5,0,.9-.2,1.4-.2l230.5,8.2c1.9,0,3.5,1.5,3.9,3.4l116.8,661.4c.2,1.2,0,2.4-.9,3.3s-1.9,1.5-3.1,1.5h-.1ZM748.3,1547.9h193.8l-115.3-653.4-226.5-8c-51.3,17.4-59.3,89.7-60.4,150.8l-15,510.6h196.9l6.1-124.2c0-2.1,1.8-3.8,4-3.9,2.2,0,3.9,1.5,4.1,3.7l12.4,124.4h0Z"/>
      <path d="M727.3,1555.3c-2.4,0-4.1-2-4.1-4.2l19.8-554.1c0-2.2,1.9-4,4.2-3.9,2.2,0,4,2,3.9,4.2l-19.8,554.1c0,2.2-1.9,3.9-4.1,3.9h0Z"/>
      <path d="M835.7,772.9l-3.1-171.8c-51.5-28.8-129.7-26.6-229.7-11.2-82,12.6-93.9,44.3-119.8,151.8-28.3,117.5-21.1,160.8,42.9,206,73,51.6,232.4,25,298.9-4,70.6-30.8,142.2-98.8,142.2-98.8l-83.2-96.5-48.2,24.5Z"/>
      <path class="st3" d="M537.8,615.7c40.7,10.4,200.1,45.5,280.2-21.5-51.2-21.3-124.1-18.3-215.1-4.2-28.8,4.4-49.9,12.7-65.1,25.7h0Z"/>
      <path d="M648.1,981.2c-47.7,0-93.4-8.2-124.5-30.2-64.6-45.6-73.8-88.8-44.5-210.2,25.9-107.2,38.1-141.8,123.2-154.9,116.1-17.9,185.6-14.4,232.3,11.6,1.3.7,2.1,2,2.1,3.5l3,165.3,42.4-21.6c1.7-.8,3.7-.4,4.9,1l83.2,96.5c1.4,1.6,1.3,4.1-.3,5.6-.7.7-73,68.9-143.4,99.6-39.9,17.4-111.1,33.8-178.3,33.8h-.1ZM724.3,582.8c-33.3,0-73,3.7-120.7,11.1-80.2,12.4-91.1,43.3-116.5,148.8-28.6,118.5-20.5,158.1,41.3,201.7,71.4,50.4,230,23.9,294.9-4.4,61.3-26.7,124.3-82.7,138.2-95.4l-78.5-91.2-45.4,23.1c-1.2.6-2.7.6-3.9,0-1.2-.7-1.9-2-2-3.4l-3.1-169.4c-25.9-13.9-59.2-20.7-104.3-20.7h0Z"/>
      <path class="st3" d="M649.7,588.4c51-19.6,12.1-93.4,12.1-93.4,50.7-6,28.1-74.2,49.6-74.2,15.4-.4,29.8,6,38.5,17.8,3.5,4.7,6.1,10.1,7,15.9,7.6,49.9,16.9,103.5-30.9,103.5v30.4h-76.3,0Z"/>
      <path d="M726.1,592.5c-2.2,0-4.1-1.8-4.1-4.1v-30.4c0-2.2,1.8-4.1,4.1-4.1,11,0,19-3,24.3-9.2,13.8-16,8.4-51.6,3.1-86l-.6-3.7c-.8-5-7.5-21.1-10.6-25.4-1.3-1.8-.9-4.4.9-5.7,1.8-1.3,4.4-.9,5.7.9,3.9,5.3,11.2,22.7,12.1,28.9l.6,3.7c5.5,36.2,11.2,73.6-5,92.5-6.1,7.1-15,11.1-26.4,11.9v26.5c0,2.2-1.8,4.1-4.1,4.1h0Z"/>
      <path d="M726.1,562.1c-15.9,0-28-4.5-28.5-4.7-2.1-.8-3.2-3.1-2.4-5.2.8-2.1,3.1-3.2,5.2-2.4,0,0,11.3,4.1,25.6,4.1s4.1,1.8,4.1,4.1-1.8,4.1-4.1,4.1h.1Z"/>
      <path d="M726.1,577.2s-9,7.8-18,1.5c-9.1-6.3-11.2-26.1-11.2-26.1l29.2,5.5v19.2h0Z"/>
      <path d="M740.5,509.5c-2,0-3.8-1.5-4-3.6l-3.7-31.2c-.3-2.2,1.3-4.3,3.6-4.5,2.2-.3,4.2,1.3,4.5,3.6l3.7,31.2c.3,2.2-1.3,4.2-3.6,4.5h-.5Z"/>
      <path d="M707.6,481.1c0,2.5,2.1,4.6,4.6,4.6s4.6-2.1,4.6-4.6-2.1-4.6-4.6-4.6-4.6,2.1-4.6,4.6Z"/>
      <path d="M744.7,481.1c0,2.5,2.1,4.6,4.6,4.6s4.6-2.1,4.6-4.6-2.1-4.6-4.6-4.6-4.6,2.1-4.6,4.6Z"/>
      <circle class="st3" cx="670.1" cy="490.4" r="19.8"/>
      <path d="M673.8,497.4c-1.3,0-2.5-.6-3.3-1.7l-7.2-10.1c-1.3-1.8-.9-4.4.9-5.7,1.8-1.3,4.4-.9,5.7.9l7.2,10.1c1.3,1.8.9,4.4-.9,5.7-.7.5-1.5.8-2.4.8h0Z"/>
      <path d="M742.1,523.5c-1.2,0-2.4-.6-3.2-1.6-1.4-1.8-1-4.3.8-5.7l8-6.1c1.8-1.4,4.3-1,5.7.8,1.4,1.8,1,4.3-.8,5.7l-8,6.1c-.7.6-1.6.8-2.5.8h0Z"/>
      <path class="st3" d="M726.3,803.9c-48.2,0-88.1-20.8-116.6-61.2-1.3-1.8-.9-4.4,1-5.7,1.8-1.3,4.4-.9,5.7,1,32.8,46.4,79.3,65,138.4,55.4,44.6-7.3,80-28.7,80.3-28.9,1.9-1.2,4.4-.6,5.6,1.3,1.2,1.9.6,4.4-1.3,5.6-1.5.9-36.9,22.4-83,30-10.3,1.7-20.3,2.5-30,2.5h-.1Z"/>
      <path class="st4" d="M1431.3,1370.4c0,59.4-48.2,107.6-107.6,107.6s-107.6-48.2-107.6-107.6,48.2-107.6,107.6-107.6,107.6,48.2,107.6,107.6Z"/>
      <path class="st3" d="M878,751.4l20.6-10.6s24.8-57.9,70.5-62.1c0,0-5.8,22.1,13.2,25.5s18.9-20,18.9-20c0,0,47.6,20,42.8,52.6,0,0,22.3,28,6.1,47.9,0,0,1.3,27.9-16.3,37.1,0,0-14.9,22-60.6,18.6l-26.2,20c-29.7,22.7-72.4,15.6-93.1-15.5-21.4-32.1-10.1-75.6,24.1-93.3v-.2Z"/>
      <path d="M907.9,877.7c-3.8,0-7.7-.3-11.5-1-18.9-3.2-35.2-13.7-45.9-29.7-10.8-16.3-14.2-36.4-9.4-55.3,4.9-18.9,17.7-34.9,35-43.9l19.3-10c4.2-9.2,29.1-59.1,73.2-63.2,1.3,0,2.6.4,3.5,1.4s1.2,2.4.8,3.7c0,0-2.3,9.4,1.5,15.5,1.7,2.7,4.5,4.3,8.4,5,3.8.7,6.7,0,8.9-1.7,4.3-3.6,5.2-11.5,5.2-14.3s.7-2.6,1.8-3.4c1.1-.8,2.6-.9,3.8-.4,2,.9,48.9,21,45.5,55.2,4.5,6.2,20.4,30.9,5.9,50.4,0,6.3-1.1,29.5-17.6,38.9-3.4,4.3-20.3,22.2-62.1,19.6l-24.9,19c-12.1,9.3-26.6,14.1-41.5,14.1h0ZM964.2,683.5c-39.5,7.7-61.7,58.4-61.9,58.9-.4.9-1,1.6-1.9,2l-20.6,10.6c-15.3,7.9-26.6,22-30.9,38.7-4.3,16.7-1.3,34.5,8.2,48.8,9.4,14.1,23.8,23.4,40.5,26.2s33.3-1.3,46.8-11.6l26.2-20c.8-.6,1.8-.9,2.8-.8,42.5,3.1,56.4-16.1,57-16.9.4-.5.9-1,1.5-1.3,15.1-7.9,14.1-33,14.1-33.3,0-1,.3-2,.9-2.8,14-17.1-5.9-42.5-6.1-42.8-.7-.9-1-2-.8-3.1,3.4-23.1-23.9-39.8-35.4-45.8-.9,4.5-2.9,10.5-7.5,14.4-4.1,3.4-9.3,4.6-15.5,3.5s-10.9-4-13.8-8.7c-3.4-5.2-3.7-11.5-3.4-16h-.2Z"/>
      <path d="M1026,754.2c-1.6,0-3-.9-3.7-2.4-.9-2.1,0-4.5,2.1-5.4,7.3-3.2,16.5-12.4,16.6-12.5,1.6-1.6,4.2-1.6,5.7,0,1.6,1.6,1.6,4.2,0,5.7-.4.4-10.4,10.4-19.1,14.2-.5.2-1.1.4-1.6.4Z"/>
      <path d="M1031.6,799.4c-1.6,0-3-.9-3.7-2.4-.9-2.1,0-4.5,2.1-5.4,7.6-3.4,17.5-10.3,17.6-10.3,1.8-1.3,4.4-.8,5.7,1,1.3,1.8.8,4.4-1,5.7-.4.3-10.7,7.4-19,11.1-.5.2-1.1.4-1.6.4h0Z"/>
      <path d="M1023.3,827.6h-1.3c-2.2-.2-3.9-2.1-3.7-4.4.2-2.2,2.1-3.9,4.4-3.7,5.5.5,13.2-4.7,15.7-6.7,1.7-1.4,4.3-1.2,5.7.6,1.4,1.7,1.2,4.3-.6,5.7-1.1.9-10.8,8.6-20.2,8.6h0Z"/>
      <g>
        <path class="st4" d="M1049.3,475.9c0,19.6-15.9,35.5-35.5,35.5s-35.5-15.9-35.5-35.5,15.9-35.5,35.5-35.5,35.5,15.9,35.5,35.5Z"/>
        <path class="st4" d="M1078.4,584.2h-129c0-35.6,28.9-64.5,64.5-64.5s64.5,28.9,64.5,64.5Z"/>
      </g>
    </g>
  </g>
</svg>